<?xml version="1.0" encoding="utf-8"?>
<svg version="1.1" xmlns:xlink="http://www.w3.org/1999/xlink" width="49px" height="49px" xmlns="http://www.w3.org/2000/svg">
  <g transform="matrix(1 0 0 1 -232 -710 )">
    <path d="M 256.5 710  C 270.22 710  281 720.78  281 734.5  C 281 748.22  270.22 759  256.5 759  C 242.78 759  232 748.22  232 734.5  C 232 720.78  242.78 710  256.5 710  Z " fill-rule="nonzero" fill="#7f7f7f" stroke="none" />
    <path d="M 256.5 710.5  C 269.94 710.5  280.5 721.06  280.5 734.5  C 280.5 747.94  269.94 758.5  256.5 758.5  C 243.06 758.5  232.5 747.94  232.5 734.5  C 232.5 721.06  243.06 710.5  256.5 710.5  Z " stroke-width="1" stroke="#797979" fill="none" />
  </g>
</svg>