<?xml version="1.0" encoding="UTF-8"?>
<svg width="56px" height="56px" viewBox="0 0 56 56" version="1.1" xmlns="http://www.w3.org/2000/svg" xmlns:xlink="http://www.w3.org/1999/xlink">
    <title>编组 3备份 2</title>
    <g id="页面-1" stroke="none" stroke-width="1" fill="none" fill-rule="evenodd">
        <g id="编组-3备份-2">
            <rect id="矩形" x="0" y="0" width="56" height="56"></rect>
            <g id="编组" transform="translate(2.870662, 2.333333)">
                <g id="编组-2" transform="translate(0.156721, 42.763282)" fill="#000000">
                    <polygon id="Fill-1" points="5.51523479 0.108548313 5.51523479 3.52200067 1.69283473 3.52200067 1.69283473 0.108548313 0 0.108548313 0 8.57005181 1.69283473 8.57005181 1.69283473 5.13369204 5.51523479 5.13369204 5.51523479 8.57005181 7.20794742 8.57005181 7.20794742 0.108548313"></polygon>
                    <path d="M15.1599128,4.83330541 C15.1599128,6.20616628 14.4780965,6.9390506 13.2403966,6.9390506 C11.9952816,6.9390506 11.3095106,6.18541028 11.3095106,4.77499095 L11.3095106,0.00617737969 L9.59613352,0.00617737969 L9.59613352,4.83330541 C9.59613352,7.20813726 10.9160172,8.57000239 13.2174098,8.57000239 C15.5408006,8.57000239 16.8731663,7.18268646 16.8731663,4.76350102 L16.8731663,0.00123547594 L15.1599128,0.00123547594 L15.1599128,4.83330541 Z" id="Fill-2"></path>
                    <polygon id="Fill-4" points="34.9629011 5.80648981 33.0453622 0 31.6471259 0 29.7298342 5.80648981 27.8644481 0.00494190375 26.0408335 0.00494190375 28.9836303 8.44386029 30.4027524 8.44386029 32.3230101 2.90027976 34.2428971 8.44386029 35.6737598 8.44386029 38.6095122 0.00494190375 36.8326127 0.00494190375"></polygon>
                    <polygon id="Fill-6" points="41.6813684 4.81051088 44.7980488 4.81051088 44.7980488 3.27271398 41.6813684 3.27271398 41.6813684 1.54465379 46.2051832 1.54465379 46.2051832 0.00685689145 39.9909781 0.00685689145 39.9909781 8.43836243 46.3680677 8.43836243 46.3680677 6.90068907 41.6813684 6.90068907"></polygon>
                    <polygon id="Fill-8" points="48.411564 8.43217269 50.1019543 8.43217269 50.1019543 0.000667157006 48.411564 0.000667157006"></polygon>
                    <path d="M22.1881821,2.1375834 L23.4876743,5.15931045 L20.8970936,5.15931045 L22.1881821,2.1375834 Z M24.1246294,6.68141681 L24.8829446,8.43875778 L26.6788762,8.43875778 L22.9734387,0.00119841166 L21.4621225,0.00119841166 L17.7417313,8.43875778 L19.4907007,8.43875778 L20.2597678,6.68141681 L24.1246294,6.68141681 Z" id="Fill-10"></path>
                </g>
                <path d="M7.69222964,6.66625752 C7.69222964,6.66625752 3.34007391,10.6664815 3.61838646,14.9889176 C3.74629653,18.1010815 6.16027478,20.0399139 6.16027478,20.0399139 C10.0211817,23.7206438 19.1855986,28.4399148 21.3898538,29.5334345 C21.4800706,29.5781588 21.5679392,29.5512254 21.6156429,29.5110724 C21.6854682,29.4522638 21.6740984,29.3394648 21.6433258,29.2723785 C15.7618105,16.4378838 7.69222964,6.66625752 7.69222964,6.66625752 M19.0091198,0.475040498 C14.9156267,1.47046346 13.9059404,5.23668831 13.9059404,5.23668831 C13.1943402,7.21406755 13.9307809,10.1327559 13.9307809,10.1327559 C15.2894701,16.1623727 21.9797231,26.0770671 23.4466725,28.1966496 C23.5015441,28.2747317 23.5815033,28.3047537 23.6649229,28.2826387 C23.7181879,28.2685543 23.7809689,28.2267952 23.7923387,28.1102898 C26.0163674,5.8892667 21.4407706,0 21.4407706,0 C20.188117,0.176673059 19.0091198,0.475040498 19.0091198,0.475040498 M20.0157165,32.5754234 C16.1580228,32.7098432 4.55540499,33.1138438 4.55540499,33.1138438 C8.02257131,39.0690849 12.0144779,37.7088259 12.0144779,37.7088259 C14.1738718,37.100354 18.6546791,33.968299 20.1320096,32.9088784 C20.225316,32.8419156 20.2038123,32.7218273 20.1792189,32.6732731 C20.1475813,32.6112522 20.069105,32.5735702 20.0157165,32.5754234 M20.3574279,31.081733 C13.5718912,26.5108427 0.445104355,19.463935 0.445104355,19.463935 C-0.727590036,23.0028323 0.787804487,26.0324664 0.787804487,26.0324664 C2.4872165,29.7464306 5.75825403,30.7863307 5.75825403,30.7863307 C7.22792225,31.3503255 8.41730056,31.3975206 8.41730056,31.3975206 C8.64889813,31.4405152 17.8469301,31.4295195 20.27648,31.4259366 C20.3579223,31.4254424 20.4188495,31.3679928 20.4367693,31.3036245 C20.4703843,31.1823007 20.4071089,31.1153379 20.3574279,31.081733 M49.7986195,19.463935 C49.7986195,19.463935 36.6719563,26.5108427 29.8862959,31.081733 C29.8366149,31.1153379 29.7733396,31.1823007 29.8070782,31.3036245 C29.8248744,31.3679928 29.8859252,31.4254424 29.967491,31.4259366 C32.3967937,31.4295195 41.5949493,31.4405152 41.8265469,31.3975206 C41.8265469,31.3975206 43.0159252,31.3503255 44.4855934,30.7863307 C44.4855934,30.7863307 47.7566309,29.7464306 49.4559194,26.0324664 C49.4559194,26.0324664 50.9714375,23.0028323 49.7986195,19.463935 M30.0646285,32.6732731 C30.0400352,32.7218273 30.0185315,32.8419156 30.1118378,32.9088784 C31.5892919,33.968299 36.0699756,37.100354 38.2293696,37.7088259 C38.2293696,37.7088259 42.2211525,39.0690849 45.6884424,33.1138438 C45.6884424,33.1138438 34.0858247,32.7098432 30.228131,32.5754234 C30.1746188,32.5735702 30.0962662,32.6112522 30.0646285,32.6732731 M36.3379071,5.23668831 C36.3379071,5.23668831 35.3282208,1.47046346 31.2347276,0.475040498 C31.2347276,0.475040498 30.0557304,0.176673059 28.8030768,0 C28.8030768,0 24.2274801,5.8892667 26.4513852,28.1102898 C26.462755,28.2267952 26.5256595,28.2685543 26.5789245,28.2826387 C26.6623441,28.3047537 26.7421798,28.2747317 26.7971749,28.1966496 C28.2640007,26.0770671 34.9542537,16.1623727 36.312943,10.1327559 C36.312943,10.1327559 37.0493837,7.21406755 36.3379071,5.23668831 M46.625461,14.9889176 C46.9037735,10.6664815 42.5516178,6.66625752 42.5516178,6.66625752 C42.5516178,6.66625752 34.4819133,16.4378838 28.600398,29.2723785 C28.5696255,29.3394648 28.5583793,29.4522638 28.6282046,29.5110724 C28.6759082,29.5512254 28.7636533,29.5781588 28.8538701,29.5334345 C31.0582488,28.4399148 40.2226658,23.7206438 44.0835727,20.0399139 C44.0835727,20.0399139 46.4975509,18.1010815 46.625461,14.9889176" id="Fill-11" fill="#CE0E2D"></path>
            </g>
        </g>
    </g>
</svg>