<?xml version="1.0" encoding="utf-8"?>
<svg version="1.1" xmlns:xlink="http://www.w3.org/1999/xlink" width="10px" height="17px" xmlns="http://www.w3.org/2000/svg">
  <g transform="matrix(1 0 0 1 -16 -66 )">
    <path d="M 9.828178694158074 1.0220440881763517  C 9.942726231386027 1.1356045424181676  10 1.266199064796257  10 1.4138276553106217  C 10 1.5614562458249828  9.942726231386027 1.6920507682030719  9.828178694158074 1.8056112224448897  L 3.075601374570447 8.5  L 9.828178694158074 15.19438877755511  C 9.942726231386027 15.307949231796927  10 15.438543754175015  10 15.586172344689379  C 10 15.73380093520374  9.942726231386027 15.864395457581828  9.828178694158074 15.977955911823647  L 8.969072164948454 16.829659318637276  C 8.854524627720505 16.943219772879093  8.722794959908363 17  8.573883161512027 17  C 8.424971363115695 17  8.293241695303553 16.943219772879093  8.1786941580756 16.829659318637276  L 0.1718213058419244 8.891783567134269  C 0.05727376861397484 8.77822311289245  0 8.64762859051436  0 8.5  C 0 8.352371409485638  0.05727376861397484 8.221776887107549  0.1718213058419244 8.108216432865731  L 8.1786941580756 0.17034068136272562  C 8.293241695303553 0.05678022712090791  8.424971363115695 0  8.573883161512027 0  C 8.722794959908363 0  8.854524627720505 0.05678022712090791  8.969072164948454 0.17034068136272562  L 9.828178694158074 1.0220440881763517  Z " fill-rule="nonzero" fill="#000000" stroke="none" transform="matrix(1 0 0 1 16 66 )" />
  </g>
</svg>