<?xml version="1.0" encoding="utf-8"?>
<svg version="1.1" xmlns:xlink="http://www.w3.org/1999/xlink" width="12px" height="19px" xmlns="http://www.w3.org/2000/svg">
  <g transform="matrix(1 0 0 1 -367 -250 )">
    <path d="M 11.79381443298969 9.062124248496994  C 11.931271477663232 9.189044756179024  12 9.335003340013358  12 9.5  C 12 9.664996659986638  11.931271477663232 9.810955243820974  11.79381443298969 9.937875751503006  L 2.185567010309278 18.809619238476955  C 2.0481099656357387 18.936539746158985  1.8900343642611683 19  1.711340206185567 19  C 1.532646048109966 19  1.3745704467353952 18.936539746158985  1.2371134020618557 18.809619238476955  L 0.2061855670103093 17.857715430861724  C 0.0687285223367698 17.73079492317969  0 17.584836339345358  0 17.419839679358716  C 0 17.254843019372075  0.0687285223367698 17.108884435537743  0.2061855670103093 16.981963927855713  L 8.309278350515463 9.5  L 0.2061855670103093 2.0180360721442883  C 0.0687285223367698 1.891115564462257  0 1.7451569806279217  0 1.580160320641283  C 0 1.41516366065464  0.0687285223367698 1.2692050768203051  0.2061855670103093 1.1422845691382757  L 1.2371134020618557 0.19038076152304628  C 1.3745704467353952 0.06346025384101472  1.532646048109966 0  1.711340206185567 0  C 1.8900343642611683 0  2.0481099656357387 0.06346025384101472  2.185567010309278 0.19038076152304628  L 11.79381443298969 9.062124248496994  Z " fill-rule="nonzero" fill="#555555" stroke="none" transform="matrix(1 0 0 1 367 250 )" />
  </g>
</svg>