<?xml version="1.0" encoding="utf-8"?>
<svg version="1.1" xmlns:xlink="http://www.w3.org/1999/xlink" width="18px" height="17px" xmlns="http://www.w3.org/2000/svg">
  <g transform="matrix(1 0 0 1 -34 -623 )">
    <path d="M 43 623  C 48.04 623  52 626.74  52 631.5  C 52 636.26  48.04 640  43 640  C 37.96 640  34 636.26  34 631.5  C 34 626.74  37.96 623  43 623  Z " fill-rule="nonzero" fill="#ffffff" stroke="none" />
    <path d="M 43 623.5  C 47.76 623.5  51.5 627.02  51.5 631.5  C 51.5 635.98  47.76 639.5  43 639.5  C 38.24 639.5  34.5 635.98  34.5 631.5  C 34.5 627.02  38.24 623.5  43 623.5  Z " stroke-width="1" stroke="#797979" fill="none" />
  </g>
</svg>