<?xml version="1.0" encoding="utf-8"?>
<svg version="1.1" xmlns:xlink="http://www.w3.org/1999/xlink" width="35px" height="35px" xmlns="http://www.w3.org/2000/svg">
  <g transform="matrix(1 0 0 1 -42 -387 )">
    <path d="M 59.5 387  C 69.3 387  77 394.7  77 404.5  C 77 414.3  69.3 422  59.5 422  C 49.7 422  42 414.3  42 404.5  C 42 394.7  49.7 387  59.5 387  Z " fill-rule="nonzero" fill="#ffffff" stroke="none" />
    <path d="M 59.5 387.5  C 69.02 387.5  76.5 394.98  76.5 404.5  C 76.5 414.02  69.02 421.5  59.5 421.5  C 49.98 421.5  42.5 414.02  42.5 404.5  C 42.5 394.98  49.98 387.5  59.5 387.5  Z " stroke-width="1" stroke="#797979" fill="none" />
  </g>
</svg>