<?xml version="1.0" encoding="utf-8"?>
<svg version="1.1" xmlns:xlink="http://www.w3.org/1999/xlink" width="80px" height="80px" xmlns="http://www.w3.org/2000/svg">
  <g transform="matrix(1 0 0 1 -32 -138 )">
    <path d="M 72 138  C 94.4 138  112 155.6  112 178  C 112 200.4  94.4 218  72 218  C 49.599999999999994 218  32 200.4  32 178  C 32 155.6  49.599999999999994 138  72 138  Z " fill-rule="nonzero" fill="#ffffff" stroke="none" />
    <path d="M 72 138.5  C 94.12 138.5  111.5 155.88  111.5 178  C 111.5 200.12  94.12 217.5  72 217.5  C 49.879999999999995 217.5  32.5 200.12  32.5 178  C 32.5 155.88  49.879999999999995 138.5  72 138.5  Z " stroke-width="1" stroke="#797979" fill="none" />
  </g>
</svg>