<?xml version="1.0" encoding="utf-8"?>
<svg version="1.1" xmlns:xlink="http://www.w3.org/1999/xlink" width="124px" height="124px" xmlns="http://www.w3.org/2000/svg">
  <defs>
    <mask fill="white" id="clip18">
      <path d="M 0 62  C 0 27.28  27.28 0  62 0  C 96.72 0  124 27.28  124 62  C 124 80.94595921731405  115.8769686526798 97.67654624899535  102.85458883670074 108.96807821638248  C 92.0124061871594 118.36919027988762  77.77404078268594 124  62 124  C 27.28 124  0 96.72000000000003  0 62  Z " fill-rule="evenodd" />
    </mask>
  </defs>
  <g transform="matrix(1 0 0 1 -144 -146 )">
    <path d="M 0 62  C 0 27.28  27.28 0  62 0  C 96.72 0  124 27.28  124 62  C 124 80.94595921731405  115.8769686526798 97.67654624899535  102.85458883670074 108.96807821638248  C 92.0124061871594 118.36919027988762  77.77404078268594 124  62 124  C 27.28 124  0 96.72000000000003  0 62  Z " fill-rule="nonzero" fill="#ffffff" stroke="none" transform="matrix(1 0 0 1 144 146 )" />
    <path d="M 0 62  C 0 27.28  27.28 0  62 0  C 96.72 0  124 27.28  124 62  C 124 80.94595921731405  115.8769686526798 97.67654624899535  102.85458883670074 108.96807821638248  C 92.0124061871594 118.36919027988762  77.77404078268594 124  62 124  C 27.28 124  0 96.72000000000003  0 62  Z " stroke-width="20" stroke="#00ffff" fill="none" transform="matrix(1 0 0 1 144 146 )" mask="url(#clip18)" />
  </g>
</svg>