<?xml version="1.0"?>
<svg width="340" height="250" xmlns="http://www.w3.org/2000/svg" xmlns:svg="http://www.w3.org/2000/svg" preserveAspectRatio="xMidYMid meet" version="1.0">
 <g class="iconmbgsvg layer" transform="translate(63.852500915527344,86.99691009521484)">
  <g fill="#1c085d" id="svg_11">
   <g id="svg_12" mask="url(#81a8e1cb-314c-4e37-9e42-bf7e70b44451)">
    <g id="svg_13">
     <rect class="image-rect" fill="#1c085d" fill-opacity="0" height="78.01" id="svg_14" stroke-width="2" width="82.5"/>
     <g id="svg_5">
      <svg class="image-svg-svg primary" filter="url(#colors810980553)" height="78.01" id="svg_15" width="82.5" x="0" y="0">
       <g id="svg_6">
        <svg id="svg_16" viewBox="-0.0000762939453125 -0.0000457763671875 266.780029296875 252.2550811767578" xmlns="http://www.w3.org/2000/svg">
         <title>1</title>
         <g fill="#F06F1D" fill-rule="evenodd" id="svg_17">
          <path d="m64.39,32.48c-114.2,7.43 -65.53,304.97 110.66,195.68c80.29,-49.79 103.05,-97.04 86.82,-132.75c-19.66,-43.21 -96.43,-69.5 -197.48,-62.93" fill-opacity="0.6" id="svg_18"/>
          <path d="m237.48,203.51c-31.48,42.05 -126.09,45.62 -177.69,7.25c-46.55,-34.62 -77.79,-123.86 -48.28,-163.91c32.25,-43.77 125,-45.71 177.69,-7.25c53.92,39.34 82.33,118.43 48.28,163.91" fill-opacity="0.7" id="svg_19"/>
          <path d="m235.98,107.15c-12.34,-62.68 -57.38,-174.26 -168.57,-53.1c-111.2,121.16 -54.57,167.91 44.97,170.43c99.54,2.53 135.94,-54.65 123.6,-117.33" fill-opacity="0.7" id="svg_20"/>
         </g>
        </svg>
       </g>
      </svg>
     </g>
     <defs transform="translate(-6 -6) scale(1.02749 1) translate(6 6)">
      <filter id="colors810980553">
       <feColorMatrix class="icon-fecolormatrix" type="matrix" values="0 0 0 0 0.2109375  0 0 0 0 0.19921875  0 0 0 0 0.51171875  0 0 0 1 0"/>
      </filter>
      <filter id="colorsf2579709706">
       <feColorMatrix class="icon-fecolormatrix" type="matrix" values="0 0 0 0 0.99609375  0 0 0 0 0.99609375  0 0 0 0 0.99609375  0 0 0 1 0"/>
      </filter>
     </defs>
    </g>
    <rect fill="url(#Iw-3B9WgSuJpK0WbnQPDc)" height="90.01" id="svg_21" transform="translate(-6, -6)" width="94.5"/>
   </g>
   <g id="svg_22">
    <g class="tp-name" data-gra="path-name" id="svg_23" transform="translate(0 0)">
     <g id="svg_24" transform="translate(40.205 16.0004) scale(1 1)">
      <g id="svg_25">
       <path d="m40.17,-25.34l1.67,0l0,2.2q0,0.26 -0.19,0.46q-0.2,0.2 -0.47,0.2l0,0l-1.01,0l0,1.27q0,2.25 -1.52,3.43q-1.51,1.19 -3.93,1.19l0,0l-2.51,0l0,4.01l7.52,0l0,2.2q0,0.26 -0.2,0.46q-0.19,0.2 -0.46,0.2l0,0l-6.86,0l0,3.21l8.75,0l0,2.2q0,0.26 -0.19,0.46q-0.2,0.2 -0.47,0.2l0,0l-8.09,0l0,3.56q0,0.27 -0.2,0.46q-0.2,0.2 -0.46,0.2l0,0l-4.18,0l0,-4.22l-6.95,0l0,-2.86l6.95,0l0,-3.17l-5.77,0l0,-2.86l5.77,0l0,-4.05l-5.46,0l0,-2.86l5.46,0l0,-3.03l-6.34,0l0,-2.86l6.34,0l0,-3.22l-5.46,0l0,-2.86l5.46,0l0,-4l4.84,0l0,4l7.96,0l0,6.08zm-28.55,-9.42q-0.44,4.84 -1.9,9.59l0,0l0,29.09q0,0.26 -0.19,0.46q-0.2,0.2 -0.47,0.2l0,0l-4.18,0l0,-20.51q-1.23,1.41 -2.86,2.38l0,0l0,-3.3q1.37,-1.72 2.71,-6.98q1.34,-5.25 2.05,-10.93l0,0l4.84,0zm5.5,31.33q1.67,2.2 4.07,3.41q2.39,1.21 5.3,1.21l0,0l15.31,0l-0.44,2.2q-0.18,0.66 -0.66,0.66l0,0l-13.99,0q-6.95,0 -11.09,-4.8l0,0q-1.76,2.55 -5.19,4.97l0,0l0,-2.86q2.11,-2.11 3.21,-4.92l0,0q-2.29,-4.18 -2.95,-10.26l0,0l3.04,0.14q0.13,3.16 1.14,6.02l0,0q0.75,-3.69 1.06,-9.19l0,0l-4.4,0l0,-2.86l1.36,0q1.37,-1.81 2.33,-4.25q0.97,-2.44 1.24,-5.12l0,0l-4.93,0l0,-2.86l9.02,0l0,2.86q-0.27,2.2 -1.67,4.79q-1.41,2.6 -3.17,4.58l0,0l4.62,0l0,2.86q-0.62,4.71 -1.39,7.92q-0.77,3.21 -1.82,5.5l0,0zm15.09,-25.13l0,3.22l3.12,0l0,-3.22l-3.12,0zm3.12,7.57l0,-1.49l-3.12,0l0,3.03l1.58,0q1.54,0 1.54,-1.54l0,0zm43.03,9.64l-7.04,0l0,0.48q1.5,2.73 4.05,4.93l0,0q2.42,-1.8 4.23,-4.84l0,0l5.28,0q-2.47,4.4 -6.6,7.13l0,0q1.8,1.27 3.54,2.24q1.74,0.97 4.16,2.16l0,0l0,2.86q-0.4,-0.13 -0.75,-0.24q-0.35,-0.11 -0.66,-0.25l0,0q-4.4,-1.54 -7.53,-3.03q-3.12,-1.5 -5.72,-4.01l0,0l0,2.91q0,4.62 -4.62,4.62l0,0l-6.51,0l0,-2.86l4.75,0q1.54,0 1.54,-1.54l0,0l0,-2.95q-1.49,1.19 -4.51,2.64q-3.01,1.45 -9.35,4.22l0,0l0,-4.22q0.44,-0.22 3.17,-1.36l0,0l3.52,-1.5q-1.89,-3.83 -3.91,-6.78l0,0l4.84,0q1.23,2.56 2.11,5.37l0,0q2.86,-1.49 4.13,-2.46l0,0l0,-3.52l-10.91,0l0,-2.86l10.91,0l0,-2.73l-12.05,0q-0.22,6.38 -1.19,10.54q-0.97,4.16 -2.73,6.64q-1.76,2.49 -4.49,3.81l0,0l0,-3.3q2.16,-2.07 2.89,-7.59q0.72,-5.52 0.72,-13.93l0,0l0,-10.65l17.12,0q-1.5,-1.84 -3.43,-4l0,0l5.28,0q0.96,1.23 1.45,2.07q0.48,0.83 1.01,1.93l0,0l13.95,0l0,2.2q0,0.27 -0.2,0.47q-0.2,0.19 -0.46,0.19l0,0l-29.88,0l0,7.88l0,0.88l12.01,0l0,-2.6l-10.34,0l0,-2.86l10.34,0l0,-2.46l4.84,0l0,2.46l11.66,0l0,5.46l3,0l0,2.2q0,0.26 -0.2,0.46q-0.2,0.2 -0.46,0.2l0,0l-2.34,0l0,0.97q0,4.62 -4.62,4.62l0,0zm-7.04,-11.05l0,2.6l6.82,0l0,-2.6l-6.82,0zm0,5.46l0,2.73l5.28,0q1.54,0 1.54,-1.54l0,0l0,-1.19l-6.82,0zm42.02,-12.36l16.02,0l0,2.2q0,0.26 -0.2,0.46q-0.2,0.2 -0.46,0.2l0,0l-23.36,0l0,7.87l18.52,0l0,2.2q0,0.13 -0.04,0.18l0,0l-0.4,14.56q0,4.62 -4.62,4.62l0,0l-10.78,0l0,-2.86l9.02,0q1.54,0 1.54,-1.54l0,0l0.4,-14.3l-13.73,0q-0.57,7.04 -4.25,12.12q-3.67,5.09 -10.18,7.9l0,0l0,-3.3q2.86,-1.45 5.06,-4.35q2.2,-2.91 3.41,-6.85q1.21,-3.93 1.21,-8.38l0,0l0,-7.87l-9.9,0l0,-2.86l18.7,0q-1.98,-3.52 -4.62,-6.03l0,0l5.72,0q1.01,1.27 1.6,2.59q0.6,1.32 1.34,3.44l0,0zm54.43,13.15l6.34,0l0,2.2q0,0.27 -0.2,0.46q-0.2,0.2 -0.46,0.2l0,0l-5.68,0l0,12.23q0,4.62 -4.62,4.62l0,0l-7.61,0l0,-2.86l5.85,0q1.54,0 1.54,-1.54l0,0l0,-12.45l-17.33,0q-0.18,4.93 -1.04,8.32q-0.86,3.39 -3.01,5.83q-2.16,2.44 -6.07,3.72l0,0l0,-3.3q2.99,-1.59 4.07,-5.13q1.07,-3.54 1.21,-9.44l0,0l-6.74,0l0,-2.86l6.78,0l0,-1.85l0,-12.58l9.59,0q1.19,-2.16 1.37,-4.84l0,0l5.28,0q-0.93,2.64 -2.56,4.84l0,0l13.29,0l0,14.43zm-22.13,0l17.29,0l0,-11.57l-17.29,0l0,10.16l0,1.41zm8.27,-10.12q1.23,1.63 2.69,4.29q1.45,2.66 2.33,4.6l0,0l-3.3,0q-0.4,-0.75 -2.71,-3.72q-2.31,-2.97 -4.29,-5.17l0,0l5.28,0zm5.02,23.76l-3.3,0q-0.4,-0.75 -2.71,-3.72q-2.31,-2.97 -4.29,-5.17l0,0l5.28,0q1.23,1.63 2.69,4.29q1.45,2.67 2.33,4.6l0,0z" fill="#007fff" id="svg_26" transform="translate(-2.0199999809265137, 35.41999816894531)"/>
      </g>
      <!---->
      <!---->
      <!---->
      <!---->
      <!---->
      <!---->
      <!---->
     </g>
    </g>
    <g class="tp-slogan" data-gra="path-slogan" fill="url(#5e623038-202d-424f-8610-681b1ce6ecc8)" id="svg_27" transform="translate(99.795 -18)">
     <!---->
     <!---->
     <g id="svg_28" transform="translate(40.205 16.0004) scale(1 1)">
      <g id="svg_29" transform="scale(1)">
       <path d="m6.66,-5.89l0,0q0.95,-0.04 1.16,0.09l0,0q0,0.09 -0.09,0.26l0,0q-0.08,0.25 -0.08,0.38l0,0l0,0.95l0.69,0q1.41,0 1.89,-0.09l0,0l0,0.99q-0.78,-0.08 -1.85,-0.08l0,0l-0.73,0l0,3.48q-0.13,0.68 -1.85,0.81l0,0q-0.09,-0.51 -0.43,-0.99l0,0q1.29,0.09 1.33,-0.17l0,0l0,-3.13l-3.99,0q-1.08,0 -1.98,0.08l0,0l0,-0.94q0.47,0.04 1.93,0.04l0,0l4.04,0l0,-1.08q0,-0.64 -0.04,-0.6zm-4.38,3.31l0.86,-0.47q0.94,1.12 1.33,1.8l0,0l-0.95,0.43q-0.04,-0.08 -0.17,-0.3l0,0q-0.56,-1.03 -1.07,-1.46l0,0zm2.45,-5.97l1.07,-0.09q0.09,0.26 0.17,0.65l0,0q0.26,0.81 0.3,0.73l0,0l2.11,0q0.51,0.04 1.37,-0.04l0,0q-0.04,0.12 -0.04,0.73l0,0l0,0.17q0,0.6 0.09,1.07l0,0l-1.12,0q0.09,-0.43 0.09,-0.81l0,0l0,-0.31l-6.71,0l0,0.26q0,0.65 0.05,0.95l0,0l-1.04,0q0.09,-0.39 0.09,-0.99l0,0l0,-0.26q0,-0.21 -0.04,-0.51l0,0q0,-0.22 0,-0.3l0,0q0.68,0.04 1.11,0.04l0,0l2.97,0q-0.22,-0.65 -0.47,-1.29l0,0zm12.89,-0.13l0.94,-0.26q0.48,0.73 0.78,1.64l0,0l-0.95,0.3q-0.17,-0.69 -0.77,-1.68l0,0zm-4.34,-0.17l0,0q0.13,0 0.43,0.04l0,0q0.73,0 0.68,0.09l0,0q0,0.04 -0.04,0.13l0,0q-0.13,0.25 -0.13,0.73l0,0l0,1.41l0.35,0q0.64,0 1.11,-0.08l0,0q0.05,0 0.05,0l0,0l0,1.03q0,0 -0.05,0l0,0q-0.38,-0.09 -1.11,-0.09l0,0l-0.35,0l0,1.55l1.42,-0.51l0.09,0.9l-1.51,0.47l0,3.09q0.26,0.99 -1.59,1.08l0,0q-0.04,-0.65 -0.43,-1.03l0,0q1.29,0.25 1.16,-0.48l0,0l0,-2.4l-1.5,0.6l-0.3,-0.99l1.8,-0.47l0,-1.81l-0.38,0q-0.6,0 -1.21,0.13l0,0q-0.13,0 -0.13,0l0,0l0,-1.07q0,0 0.13,0l0,0q0.52,0.08 1.21,0.08l0,0l0.38,0l0,-1.41q0,-0.48 -0.08,-0.86l0,0q0,-0.09 0,-0.13zm6.79,2.71l-2.97,0l0,2.01l2.97,0l0,-2.01zm-2.58,-0.82l2.23,0q0.6,0 1.25,-0.04l0,0q0.08,0 0.08,0l0,0q0,0.08 0,0.3l0,0q-0.04,0.56 -0.04,0.99l0,0l0,1.58q0,0.82 0.09,1.42l0,0q0,0.13 0,0.17l0,0l-1.12,0q0.09,-0.12 0.09,-0.81l0,0l-2.93,0q0,2.92 -1.5,4.42l0,0q-0.51,-0.3 -1.12,-0.43l0,0q1.29,-0.94 1.55,-2.32l0,0q0.34,-1.33 0.17,-5.37l0,0q0.39,0.09 1.25,0.09l0,0zm10.27,-1.93l0,0q0.9,0.34 0.99,0.51l0,0q0,0 -0.05,0.04l0,0q-0.3,0.13 -0.86,0.86l0,0l2.37,0q1.54,0 2.02,-0.08l0,0q-0.43,1.07 -0.86,1.97l0,0q-0.3,-0.12 -0.99,-0.21l0,0q0.39,-0.47 0.6,-0.86l0,0l-3.65,0q-0.47,0.52 -0.73,0.77l0,0q-0.22,0.22 -0.43,0.48l0,0q-0.3,-0.35 -0.86,-0.56l0,0q1.5,-0.86 2.45,-2.92zm-3.14,0.08l0,0q1.2,0.47 1.12,0.6l0,0q0,0 -0.04,0l0,0q-0.26,0.13 -0.82,0.95l0,0l0,3.22q0,1.08 0.08,1.5l0,0l-1.07,0q0.09,-0.51 0.13,-1.46l0,0l0,-2.1q-0.52,0.77 -0.95,1.33l0,0q-0.21,-0.43 -0.68,-0.82l0,0q1.54,-1.16 2.23,-3.22zm3.78,2.36l0,0q0.95,0.05 1.16,0.13l0,0q0,0 -0.04,0.05l0,0q-0.22,0.38 -0.22,0.81l0,0l0,1.81q0.26,1.11 -1.59,1.16l0,0q0,-0.56 -0.34,-1.03l0,0q1.2,0.34 1.08,-0.43l0,0l0,-1.81q0,-0.17 -0.05,-0.69zm-1.5,1.04l0,0q0.69,0.25 0.94,0.47l0,0q0,0.04 -0.08,0.04l0,0q-0.26,0.13 -0.52,0.52l0,0q-0.08,0.13 -0.43,0.6l0,0q-0.34,0.47 -0.47,0.64l0,0q-0.39,-0.25 -0.95,-0.38l0,0q1.04,-0.73 1.51,-1.89zm2.88,0.55l0.64,-0.47q0.69,0.47 1.72,1.51l0,0l-0.77,0.68q-0.65,-0.94 -1.59,-1.72l0,0zm-2.75,2.84l0.81,-0.3q0.52,0.6 0.86,1.42l0,0l-0.9,0.34q-0.3,-0.9 -0.77,-1.46l0,0zm2.75,0.13l0.81,-0.43q0.86,0.86 1.85,2.15l0,0l-0.99,0.51q-0.43,-0.94 -1.67,-2.23l0,0zm-4.34,0.82l-0.05,-0.99q0.95,0.04 1.16,0.17l0,0q0,0.04 -0.04,0.09l0,0q-0.17,0.3 -0.17,0.68l0,0l0,0.82q-0.13,0.51 0.82,0.43l0,0l0.98,0q1.42,0.21 1.38,-1.12l0,0q0.39,0.52 0.99,0.73l0,0q-0.43,1.38 -1.89,1.16l0,0l-1.76,0q-1.68,0.13 -1.42,-0.9l0,0l0,-1.07zm-1.72,-0.91l0,0q1.12,0.18 1.07,0.3l0,0q0,0 -0.04,0l0,0q-0.13,0.05 -0.26,0.48l0,0q-0.04,0.08 -0.08,0.3l0,0q-0.43,1.11 -0.65,1.5l0,0q-0.47,-0.3 -1.03,-0.39l0,0q0.82,-0.81 0.99,-2.19zm16.07,-6.96l0,0q1.16,0.35 1.16,0.48l0,0q0,0.04 -0.09,0.08l0,0q-0.17,0.09 -0.21,0.26l0,0q-0.39,0.64 -0.6,1.33l0,0l1.59,0q0.94,0 1.46,-0.04l0,0q-0.35,5.63 -0.43,6.62l0,0q-0.13,1.2 -2.37,1.28l0,0q-0.12,-0.64 -0.51,-1.11l0,0q1.16,0.21 1.76,-0.05l0,0q0.3,0.05 0.43,-3.82l0,0q0.09,-1.38 0.13,-2.19l0,0l-2.36,0q-0.43,0.81 -1.04,1.89l0,0q-0.38,-0.26 -0.77,-0.34l0,0l0,3.86q0,1.08 0.04,1.38l0,0l-0.98,0q0.04,-0.39 0.04,-1.03l0,0l-2.11,0q0,0.64 0.05,1.11l0,0l-0.99,0q0.04,-0.38 0.04,-1.41l0,0l0,-4.6q0,-0.17 -0.04,-0.82l0,0q0,-0.56 0,-0.69l0,0q0.64,0.05 0.94,0.05l0,0l0.3,0q0.13,-0.69 0.22,-2.11l0,0q1.2,0.13 1.12,0.3l0,0q0,0.09 -0.09,0.17l0,0q-0.09,0.09 -0.13,0.22l0,0q-0.13,0.3 -0.26,0.86l0,0q-0.08,0.34 -0.13,0.56l0,0l0.74,0q0.34,0 1.28,-0.05l0,0q-0.04,0.3 -0.04,1.38l0,0l0,0.6q1.33,-1.5 1.85,-4.17zm-2.75,2.92l-2.11,0l0,2.24l2.11,0l0,-2.24zm2.02,2.2l0.73,-0.43q0.26,0.34 0.9,1.59l0,0q0.17,0.25 0.22,0.38l0,0l-0.82,0.43q-0.13,-0.51 -1.03,-1.97l0,0zm-2.02,0.68l-2.11,0l0,2.11l2.11,0l0,-2.11zm9.11,-5.75l0,0q0.13,0.04 0.34,0.08l0,0q0.82,0.26 0.73,0.35l0,0q-0.04,0.12 -0.13,0.25l0,0q-0.13,0.17 -0.17,0.3l0,0q-0.38,0.86 -0.47,1.38l0,0l0,6.7q0.64,-0.38 1.2,-1.2l0,0q-0.51,-0.82 -0.86,-2.19l0,0l0.82,-0.17q0.17,0.9 0.52,1.67l0,0q0.34,-1.03 0.42,-2.23l0,0q-0.34,0 -1.16,0.13l0,0q-0.04,0 -0.08,0l0,0l-0.22,-0.78q0.35,-0.08 0.52,-0.56l0,0q0.09,-0.17 0.26,-0.77l0,0q0.21,-0.6 0.34,-0.99l0,0q-0.43,0 -0.99,0.04l0,0l0,-0.81q0.73,0.04 0.99,0.04l0,0q0.77,0 0.99,-0.04l0,0q0.09,0.04 0.04,0.08l0,0q-0.17,0.52 -0.51,1.51l0,0q-0.3,0.9 -0.48,1.37l0,0l0.95,-0.08q-0.13,2.32 -0.6,3.74l0,0q0.38,0.47 1.24,0.68l0,0q0.56,0.13 0.99,0.18l0,0q0.17,0 0.22,0.04l0,0l0,-1.03l-0.35,0q-0.99,0 -1.37,0.04l0,0l0,-0.73q0.43,0.04 1.37,0.04l0,0l0.35,0l0,-0.77q-0.09,0 -0.3,0l0,0q-0.73,-0.04 -1.16,0.04l0,0l0,-0.77q0.43,0.04 1.46,0.04l0,0l0,-0.73q-1.08,0 -1.46,0.04l0,0l0,-0.81q0.43,0.04 1.46,0.04l0,0l0,-0.77l-0.56,0q-0.82,0 -1.2,0.04l0,0l0,-0.73q0.21,0 0.6,0.04l0,0q0.34,0 0.47,0l0,0l0.69,0l0,-0.81q-0.17,0 -0.73,0.04l0,0q-0.52,0 -0.65,0l0,0l0,-0.73q0.73,0.04 0.9,0.04l0,0l0.48,0q0,-0.73 -0.09,-1.12l0,0q0.99,0 0.99,0.13l0,0q0,0.05 -0.04,0.13l0,0q-0.09,0.17 -0.13,0.35l0,0q0,0.25 0,0.51l0,0l0.64,0q0.13,0 0.65,-0.04l0,0q0.47,0 0.6,0l0,0q0,0.26 -0.04,0.94l0,0l0,0.52q0.6,0 0.9,-0.04l0,0l0,0.81q-0.3,-0.04 -0.86,-0.04l0,0l0,0.47q0,0.78 0.04,1.03l0,0q-0.26,-0.04 -1.42,-0.08l0,0l-0.56,0l0,0.77l0.65,0q1.16,-0.04 1.5,-0.08l0,0l0,0.77q-0.17,0 -0.73,-0.04l0,0q-0.56,0 -0.77,0l0,0l-0.65,0l0,0.77l0.91,0q0.99,0 1.33,-0.04l0,0l0,0.77q-0.17,0 -0.77,-0.04l0,0q-0.48,0 -0.56,0l0,0l-0.91,0l0,1.03q0.43,0.04 1.68,-0.09l0,0q0.3,0 1.03,-0.13l0,0q-0.21,0.39 -0.47,0.86l0,0q-0.04,0.13 -0.09,0.17l0,0q-1.67,0 -2.27,-0.08l0,0q-2.97,-0.17 -3.36,-1.03l0,0q-0.38,0.51 -0.98,1.16l0,0l-0.82,-0.43q0,0.34 0,0.81l0,0l-0.82,0q0.05,-0.43 0.05,-1.97l0,0l0,-3.96q-0.39,0.73 -0.82,1.51l0,0q-0.22,-0.6 -0.56,-0.9l0,0q1.33,-2.15 1.85,-4.64zm6.66,2.7l0,-0.81l-1.08,0l0,0.81l1.08,0zm0,0.65l-1.08,0l0,0.81l1.08,0l0,-0.81zm7.05,-3.1l0.98,-0.21q0.35,0.77 0.43,1.16l0,0l2.19,0q0.35,0 0.99,-0.04l0,0q0.43,0 0.56,0l0,0l0,0.81q-0.21,-0.04 -1.55,-0.04l0,0l-2.23,0l0,0.77l0.9,0q1.12,0 1.89,-0.08l0,0q-0.04,0.3 -0.08,1.11l0,0l0,0.26q0.94,0 1.2,-0.04l0,0l0,0.73q-0.43,-0.04 -1.2,-0.04l0,0l0,0.43q0,0.55 0.08,0.98l0,0q0,0.05 0,0.05l0,0q-0.21,-0.05 -1.46,-0.05l0,0l-0.9,0q0.22,0.52 0.73,1.21l0,0q0.69,-0.6 1.12,-1.03l0,0q0.64,0.38 0.64,0.55l0,0q-0.04,0.09 -0.17,0.13l0,0q-0.17,0.05 -0.26,0.13l0,0q-0.08,0.05 -0.43,0.3l0,0q-0.3,0.22 -0.47,0.35l0,0q0.95,0.73 2.41,0.9l0,0q-0.65,0.43 -0.91,0.86l0,0q-1.2,-0.52 -2.06,-1.33l0,0q-0.6,-0.65 -1.03,-1.51l0,0l0,2.28q0.26,0.99 -1.63,1.03l0,0q-0.09,-0.6 -0.35,-0.99l0,0q1.29,0.26 1.16,-0.3l0,0l0,-0.99q-1.28,0.91 -2.62,1.46l0,0l-0.47,-0.64q1.33,-0.47 3.05,-1.63l0,0l0,-0.78l-1.2,0q-0.95,0.05 -1.21,0.05l0,0l0,-0.73q0.39,0.04 1.21,0.04l0,0l1.2,0l0,-0.73l-2.88,0q-0.04,1.37 -0.26,2.36l0,0q-0.25,1.21 -0.98,2.37l0,0q-0.05,-0.05 -0.18,-0.09l0,0q-0.3,-0.17 -0.81,-0.26l0,0q1.29,-1.55 1.37,-3.48l0,0l0.05,-1.63l0,-1.42q0,-0.34 -0.05,-0.9l0,0q0,-0.35 0,-0.47l0,0q0.22,0 0.6,0l0,0q0.52,0.04 0.86,0.04l0,0l2.28,0q-0.26,-0.6 -0.51,-0.95l0,0zm0.51,2.45l0,-0.77l-2.88,0l0,2.1l2.88,0l0,-0.68l-1.24,0q-0.95,0 -1.21,0.04l0,0l0,-0.73q0.3,0 1.16,0.04l0,0l1.29,0zm2.79,1.33l0,-0.68l-1.93,0l0,0.68l1.93,0zm0,1.38l0,-0.73l-1.93,0l0,0.73l1.93,0zm-5.24,1.42l0.56,-0.52l1.03,0.82l-0.64,0.56q-0.6,-0.69 -0.95,-0.86l0,0z" fill="#007fff" id="svg_30" transform="translate(-0.73046875, 8.9375)"/>
      </g>
     </g>
    </g>
   </g>
  </g>
 </g>
 <mask id="338f4fb3-26a0-4354-a78c-6c54dfcbea12">
  <g fill="white" id="svg_31">
   <g id="svg_32">
    <rect class="image-rect" height="78.01" id="svg_33" stroke-width="2" width="82.5" x="0" y="0"/>
    <g id="svg_7">
     <svg class="image-svg-svg primary" filter="url(#colorsf2579709706)" height="78.01" id="svg_34" width="82.5" x="0" y="0">
      <g id="svg_8">
       <svg id="svg_35" viewBox="-0.0000762939453125 -0.0000457763671875 266.780029296875 252.2550811767578" xmlns="http://www.w3.org/2000/svg">
        <title>1</title>
        <g fill-rule="evenodd" id="svg_36">
         <path d="m64.39,32.48c-114.2,7.43 -65.53,304.97 110.66,195.68c80.29,-49.79 103.05,-97.04 86.82,-132.75c-19.66,-43.21 -96.43,-69.5 -197.48,-62.93" id="svg_37"/>
         <path d="m237.48,203.51c-31.48,42.05 -126.09,45.62 -177.69,7.25c-46.55,-34.62 -77.79,-123.86 -48.28,-163.91c32.25,-43.77 125,-45.71 177.69,-7.25c53.92,39.34 82.33,118.43 48.28,163.91" id="svg_38"/>
         <path d="m235.98,107.15c-12.34,-62.68 -57.38,-174.26 -168.57,-53.1c-111.2,121.16 -54.57,167.91 44.97,170.43c99.54,2.53 135.94,-54.65 123.6,-117.33" id="svg_39"/>
        </g>
       </svg>
      </g>
     </svg>
    </g>

   </g>
  </g>
  <g fill="black" id="svg_40" stroke="black" stroke-linejoin="round" stroke-width="6" transform="translate(40.20500564575195,16.00039291381836)">
   <g class="tp-name" data-gra="path-name" id="svg_41" transform="translate(0,0)">
    <g id="svg_42" transform="scale(1)">
     <g id="svg_43">
      <path d="m40.17,-25.34l1.67,0l0,2.2q0,0.26 -0.19,0.46q-0.2,0.2 -0.47,0.2l0,0l-1.01,0l0,1.27q0,2.25 -1.52,3.43q-1.51,1.19 -3.93,1.19l0,0l-2.51,0l0,4.01l7.52,0l0,2.2q0,0.26 -0.2,0.46q-0.19,0.2 -0.46,0.2l0,0l-6.86,0l0,3.21l8.75,0l0,2.2q0,0.26 -0.19,0.46q-0.2,0.2 -0.47,0.2l0,0l-8.09,0l0,3.56q0,0.27 -0.2,0.46q-0.2,0.2 -0.46,0.2l0,0l-4.18,0l0,-4.22l-6.95,0l0,-2.86l6.95,0l0,-3.17l-5.77,0l0,-2.86l5.77,0l0,-4.05l-5.46,0l0,-2.86l5.46,0l0,-3.03l-6.34,0l0,-2.86l6.34,0l0,-3.22l-5.46,0l0,-2.86l5.46,0l0,-4l4.84,0l0,4l7.96,0l0,6.08zm-28.55,-9.42q-0.44,4.84 -1.9,9.59l0,0l0,29.09q0,0.26 -0.19,0.46q-0.2,0.2 -0.47,0.2l0,0l-4.18,0l0,-20.51q-1.23,1.41 -2.86,2.38l0,0l0,-3.3q1.37,-1.72 2.71,-6.98q1.34,-5.25 2.05,-10.93l0,0l4.84,0zm5.5,31.33q1.67,2.2 4.07,3.41q2.39,1.21 5.3,1.21l0,0l15.31,0l-0.44,2.2q-0.18,0.66 -0.66,0.66l0,0l-13.99,0q-6.95,0 -11.09,-4.8l0,0q-1.76,2.55 -5.19,4.97l0,0l0,-2.86q2.11,-2.11 3.21,-4.92l0,0q-2.29,-4.18 -2.95,-10.26l0,0l3.04,0.14q0.13,3.16 1.14,6.02l0,0q0.75,-3.69 1.06,-9.19l0,0l-4.4,0l0,-2.86l1.36,0q1.37,-1.81 2.33,-4.25q0.97,-2.44 1.24,-5.12l0,0l-4.93,0l0,-2.86l9.02,0l0,2.86q-0.27,2.2 -1.67,4.79q-1.41,2.6 -3.17,4.58l0,0l4.62,0l0,2.86q-0.62,4.71 -1.39,7.92q-0.77,3.21 -1.82,5.5l0,0zm15.09,-25.13l0,3.22l3.12,0l0,-3.22l-3.12,0zm3.12,7.57l0,-1.49l-3.12,0l0,3.03l1.58,0q1.54,0 1.54,-1.54l0,0zm43.03,9.64l-7.04,0l0,0.48q1.5,2.73 4.05,4.93l0,0q2.42,-1.8 4.23,-4.84l0,0l5.28,0q-2.47,4.4 -6.6,7.13l0,0q1.8,1.27 3.54,2.24q1.74,0.97 4.16,2.16l0,0l0,2.86q-0.4,-0.13 -0.75,-0.24q-0.35,-0.11 -0.66,-0.25l0,0q-4.4,-1.54 -7.53,-3.03q-3.12,-1.5 -5.72,-4.01l0,0l0,2.91q0,4.62 -4.62,4.62l0,0l-6.51,0l0,-2.86l4.75,0q1.54,0 1.54,-1.54l0,0l0,-2.95q-1.49,1.19 -4.51,2.64q-3.01,1.45 -9.35,4.22l0,0l0,-4.22q0.44,-0.22 3.17,-1.36l0,0l3.52,-1.5q-1.89,-3.83 -3.91,-6.78l0,0l4.84,0q1.23,2.56 2.11,5.37l0,0q2.86,-1.49 4.13,-2.46l0,0l0,-3.52l-10.91,0l0,-2.86l10.91,0l0,-2.73l-12.05,0q-0.22,6.38 -1.19,10.54q-0.97,4.16 -2.73,6.64q-1.76,2.49 -4.49,3.81l0,0l0,-3.3q2.16,-2.07 2.89,-7.59q0.72,-5.52 0.72,-13.93l0,0l0,-10.65l17.12,0q-1.5,-1.84 -3.43,-4l0,0l5.28,0q0.96,1.23 1.45,2.07q0.48,0.83 1.01,1.93l0,0l13.95,0l0,2.2q0,0.27 -0.2,0.47q-0.2,0.19 -0.46,0.19l0,0l-29.88,0l0,7.88l0,0.88l12.01,0l0,-2.6l-10.34,0l0,-2.86l10.34,0l0,-2.46l4.84,0l0,2.46l11.66,0l0,5.46l3,0l0,2.2q0,0.26 -0.2,0.46q-0.2,0.2 -0.46,0.2l0,0l-2.34,0l0,0.97q0,4.62 -4.62,4.62l0,0zm-7.04,-11.05l0,2.6l6.82,0l0,-2.6l-6.82,0zm0,5.46l0,2.73l5.28,0q1.54,0 1.54,-1.54l0,0l0,-1.19l-6.82,0zm42.02,-12.36l16.02,0l0,2.2q0,0.26 -0.2,0.46q-0.2,0.2 -0.46,0.2l0,0l-23.36,0l0,7.87l18.52,0l0,2.2q0,0.13 -0.04,0.18l0,0l-0.4,14.56q0,4.62 -4.62,4.62l0,0l-10.78,0l0,-2.86l9.02,0q1.54,0 1.54,-1.54l0,0l0.4,-14.3l-13.73,0q-0.57,7.04 -4.25,12.12q-3.67,5.09 -10.18,7.9l0,0l0,-3.3q2.86,-1.45 5.06,-4.35q2.2,-2.91 3.41,-6.85q1.21,-3.93 1.21,-8.38l0,0l0,-7.87l-9.9,0l0,-2.86l18.7,0q-1.98,-3.52 -4.62,-6.03l0,0l5.72,0q1.01,1.27 1.6,2.59q0.6,1.32 1.34,3.44l0,0zm54.43,13.15l6.34,0l0,2.2q0,0.27 -0.2,0.46q-0.2,0.2 -0.46,0.2l0,0l-5.68,0l0,12.23q0,4.62 -4.62,4.62l0,0l-7.61,0l0,-2.86l5.85,0q1.54,0 1.54,-1.54l0,0l0,-12.45l-17.33,0q-0.18,4.93 -1.04,8.32q-0.86,3.39 -3.01,5.83q-2.16,2.44 -6.07,3.72l0,0l0,-3.3q2.99,-1.59 4.07,-5.13q1.07,-3.54 1.21,-9.44l0,0l-6.74,0l0,-2.86l6.78,0l0,-1.85l0,-12.58l9.59,0q1.19,-2.16 1.37,-4.84l0,0l5.28,0q-0.93,2.64 -2.56,4.84l0,0l13.29,0l0,14.43zm-22.13,0l17.29,0l0,-11.57l-17.29,0l0,10.16l0,1.41zm8.27,-10.12q1.23,1.63 2.69,4.29q1.45,2.66 2.33,4.6l0,0l-3.3,0q-0.4,-0.75 -2.71,-3.72q-2.31,-2.97 -4.29,-5.17l0,0l5.28,0zm5.02,23.76l-3.3,0q-0.4,-0.75 -2.71,-3.72q-2.31,-2.97 -4.29,-5.17l0,0l5.28,0q1.23,1.63 2.69,4.29q1.45,2.67 2.33,4.6l0,0z" id="svg_44" transform="translate(-2.0199999809265137, 35.41999816894531)"/>
     </g>
    </g>
   </g>
   <g class="tp-slogan" data-gra="path-slogan" id="svg_45" transform="translate(99.79499816894531,-18)">
    <g id="svg_46" transform="scale(1, 1)">
     <g id="svg_47" transform="scale(1)">
      <path d="m6.66,-5.89l0,0q0.95,-0.04 1.16,0.09l0,0q0,0.09 -0.09,0.26l0,0q-0.08,0.25 -0.08,0.38l0,0l0,0.95l0.69,0q1.41,0 1.89,-0.09l0,0l0,0.99q-0.78,-0.08 -1.85,-0.08l0,0l-0.73,0l0,3.48q-0.13,0.68 -1.85,0.81l0,0q-0.09,-0.51 -0.43,-0.99l0,0q1.29,0.09 1.33,-0.17l0,0l0,-3.13l-3.99,0q-1.08,0 -1.98,0.08l0,0l0,-0.94q0.47,0.04 1.93,0.04l0,0l4.04,0l0,-1.08q0,-0.64 -0.04,-0.6zm-4.38,3.31l0.86,-0.47q0.94,1.12 1.33,1.8l0,0l-0.95,0.43q-0.04,-0.08 -0.17,-0.3l0,0q-0.56,-1.03 -1.07,-1.46l0,0zm2.45,-5.97l1.07,-0.09q0.09,0.26 0.17,0.65l0,0q0.26,0.81 0.3,0.73l0,0l2.11,0q0.51,0.04 1.37,-0.04l0,0q-0.04,0.12 -0.04,0.73l0,0l0,0.17q0,0.6 0.09,1.07l0,0l-1.12,0q0.09,-0.43 0.09,-0.81l0,0l0,-0.31l-6.71,0l0,0.26q0,0.65 0.05,0.95l0,0l-1.04,0q0.09,-0.39 0.09,-0.99l0,0l0,-0.26q0,-0.21 -0.04,-0.51l0,0q0,-0.22 0,-0.3l0,0q0.68,0.04 1.11,0.04l0,0l2.97,0q-0.22,-0.65 -0.47,-1.29l0,0zm12.89,-0.13l0.94,-0.26q0.48,0.73 0.78,1.64l0,0l-0.95,0.3q-0.17,-0.69 -0.77,-1.68l0,0zm-4.34,-0.17l0,0q0.13,0 0.43,0.04l0,0q0.73,0 0.68,0.09l0,0q0,0.04 -0.04,0.13l0,0q-0.13,0.25 -0.13,0.73l0,0l0,1.41l0.35,0q0.64,0 1.11,-0.08l0,0q0.05,0 0.05,0l0,0l0,1.03q0,0 -0.05,0l0,0q-0.38,-0.09 -1.11,-0.09l0,0l-0.35,0l0,1.55l1.42,-0.51l0.09,0.9l-1.51,0.47l0,3.09q0.26,0.99 -1.59,1.08l0,0q-0.04,-0.65 -0.43,-1.03l0,0q1.29,0.25 1.16,-0.48l0,0l0,-2.4l-1.5,0.6l-0.3,-0.99l1.8,-0.47l0,-1.81l-0.38,0q-0.6,0 -1.21,0.13l0,0q-0.13,0 -0.13,0l0,0l0,-1.07q0,0 0.13,0l0,0q0.52,0.08 1.21,0.08l0,0l0.38,0l0,-1.41q0,-0.48 -0.08,-0.86l0,0q0,-0.09 0,-0.13zm6.79,2.71l-2.97,0l0,2.01l2.97,0l0,-2.01zm-2.58,-0.82l2.23,0q0.6,0 1.25,-0.04l0,0q0.08,0 0.08,0l0,0q0,0.08 0,0.3l0,0q-0.04,0.56 -0.04,0.99l0,0l0,1.58q0,0.82 0.09,1.42l0,0q0,0.13 0,0.17l0,0l-1.12,0q0.09,-0.12 0.09,-0.81l0,0l-2.93,0q0,2.92 -1.5,4.42l0,0q-0.51,-0.3 -1.12,-0.43l0,0q1.29,-0.94 1.55,-2.32l0,0q0.34,-1.33 0.17,-5.37l0,0q0.39,0.09 1.25,0.09l0,0zm10.27,-1.93l0,0q0.9,0.34 0.99,0.51l0,0q0,0 -0.05,0.04l0,0q-0.3,0.13 -0.86,0.86l0,0l2.37,0q1.54,0 2.02,-0.08l0,0q-0.43,1.07 -0.86,1.97l0,0q-0.3,-0.12 -0.99,-0.21l0,0q0.39,-0.47 0.6,-0.86l0,0l-3.65,0q-0.47,0.52 -0.73,0.77l0,0q-0.22,0.22 -0.43,0.48l0,0q-0.3,-0.35 -0.86,-0.56l0,0q1.5,-0.86 2.45,-2.92zm-3.14,0.08l0,0q1.2,0.47 1.12,0.6l0,0q0,0 -0.04,0l0,0q-0.26,0.13 -0.82,0.95l0,0l0,3.22q0,1.08 0.08,1.5l0,0l-1.07,0q0.09,-0.51 0.13,-1.46l0,0l0,-2.1q-0.52,0.77 -0.95,1.33l0,0q-0.21,-0.43 -0.68,-0.82l0,0q1.54,-1.16 2.23,-3.22zm3.78,2.36l0,0q0.95,0.05 1.16,0.13l0,0q0,0 -0.04,0.05l0,0q-0.22,0.38 -0.22,0.81l0,0l0,1.81q0.26,1.11 -1.59,1.16l0,0q0,-0.56 -0.34,-1.03l0,0q1.2,0.34 1.08,-0.43l0,0l0,-1.81q0,-0.17 -0.05,-0.69zm-1.5,1.04l0,0q0.69,0.25 0.94,0.47l0,0q0,0.04 -0.08,0.04l0,0q-0.26,0.13 -0.52,0.52l0,0q-0.08,0.13 -0.43,0.6l0,0q-0.34,0.47 -0.47,0.64l0,0q-0.39,-0.25 -0.95,-0.38l0,0q1.04,-0.73 1.51,-1.89zm2.88,0.55l0.64,-0.47q0.69,0.47 1.72,1.51l0,0l-0.77,0.68q-0.65,-0.94 -1.59,-1.72l0,0zm-2.75,2.84l0.81,-0.3q0.52,0.6 0.86,1.42l0,0l-0.9,0.34q-0.3,-0.9 -0.77,-1.46l0,0zm2.75,0.13l0.81,-0.43q0.86,0.86 1.85,2.15l0,0l-0.99,0.51q-0.43,-0.94 -1.67,-2.23l0,0zm-4.34,0.82l-0.05,-0.99q0.95,0.04 1.16,0.17l0,0q0,0.04 -0.04,0.09l0,0q-0.17,0.3 -0.17,0.68l0,0l0,0.82q-0.13,0.51 0.82,0.43l0,0l0.98,0q1.42,0.21 1.38,-1.12l0,0q0.39,0.52 0.99,0.73l0,0q-0.43,1.38 -1.89,1.16l0,0l-1.76,0q-1.68,0.13 -1.42,-0.9l0,0l0,-1.07zm-1.72,-0.91l0,0q1.12,0.18 1.07,0.3l0,0q0,0 -0.04,0l0,0q-0.13,0.05 -0.26,0.48l0,0q-0.04,0.08 -0.08,0.3l0,0q-0.43,1.11 -0.65,1.5l0,0q-0.47,-0.3 -1.03,-0.39l0,0q0.82,-0.81 0.99,-2.19zm16.07,-6.96l0,0q1.16,0.35 1.16,0.48l0,0q0,0.04 -0.09,0.08l0,0q-0.17,0.09 -0.21,0.26l0,0q-0.39,0.64 -0.6,1.33l0,0l1.59,0q0.94,0 1.46,-0.04l0,0q-0.35,5.63 -0.43,6.62l0,0q-0.13,1.2 -2.37,1.28l0,0q-0.12,-0.64 -0.51,-1.11l0,0q1.16,0.21 1.76,-0.05l0,0q0.3,0.05 0.43,-3.82l0,0q0.09,-1.38 0.13,-2.19l0,0l-2.36,0q-0.43,0.81 -1.04,1.89l0,0q-0.38,-0.26 -0.77,-0.34l0,0l0,3.86q0,1.08 0.04,1.38l0,0l-0.98,0q0.04,-0.39 0.04,-1.03l0,0l-2.11,0q0,0.64 0.05,1.11l0,0l-0.99,0q0.04,-0.38 0.04,-1.41l0,0l0,-4.6q0,-0.17 -0.04,-0.82l0,0q0,-0.56 0,-0.69l0,0q0.64,0.05 0.94,0.05l0,0l0.3,0q0.13,-0.69 0.22,-2.11l0,0q1.2,0.13 1.12,0.3l0,0q0,0.09 -0.09,0.17l0,0q-0.09,0.09 -0.13,0.22l0,0q-0.13,0.3 -0.26,0.86l0,0q-0.08,0.34 -0.13,0.56l0,0l0.74,0q0.34,0 1.28,-0.05l0,0q-0.04,0.3 -0.04,1.38l0,0l0,0.6q1.33,-1.5 1.85,-4.17zm-2.75,2.92l-2.11,0l0,2.24l2.11,0l0,-2.24zm2.02,2.2l0.73,-0.43q0.26,0.34 0.9,1.59l0,0q0.17,0.25 0.22,0.38l0,0l-0.82,0.43q-0.13,-0.51 -1.03,-1.97l0,0zm-2.02,0.68l-2.11,0l0,2.11l2.11,0l0,-2.11zm9.11,-5.75l0,0q0.13,0.04 0.34,0.08l0,0q0.82,0.26 0.73,0.35l0,0q-0.04,0.12 -0.13,0.25l0,0q-0.13,0.17 -0.17,0.3l0,0q-0.38,0.86 -0.47,1.38l0,0l0,6.7q0.64,-0.38 1.2,-1.2l0,0q-0.51,-0.82 -0.86,-2.19l0,0l0.82,-0.17q0.17,0.9 0.52,1.67l0,0q0.34,-1.03 0.42,-2.23l0,0q-0.34,0 -1.16,0.13l0,0q-0.04,0 -0.08,0l0,0l-0.22,-0.78q0.35,-0.08 0.52,-0.56l0,0q0.09,-0.17 0.26,-0.77l0,0q0.21,-0.6 0.34,-0.99l0,0q-0.43,0 -0.99,0.04l0,0l0,-0.81q0.73,0.04 0.99,0.04l0,0q0.77,0 0.99,-0.04l0,0q0.09,0.04 0.04,0.08l0,0q-0.17,0.52 -0.51,1.51l0,0q-0.3,0.9 -0.48,1.37l0,0l0.95,-0.08q-0.13,2.32 -0.6,3.74l0,0q0.38,0.47 1.24,0.68l0,0q0.56,0.13 0.99,0.18l0,0q0.17,0 0.22,0.04l0,0l0,-1.03l-0.35,0q-0.99,0 -1.37,0.04l0,0l0,-0.73q0.43,0.04 1.37,0.04l0,0l0.35,0l0,-0.77q-0.09,0 -0.3,0l0,0q-0.73,-0.04 -1.16,0.04l0,0l0,-0.77q0.43,0.04 1.46,0.04l0,0l0,-0.73q-1.08,0 -1.46,0.04l0,0l0,-0.81q0.43,0.04 1.46,0.04l0,0l0,-0.77l-0.56,0q-0.82,0 -1.2,0.04l0,0l0,-0.73q0.21,0 0.6,0.04l0,0q0.34,0 0.47,0l0,0l0.69,0l0,-0.81q-0.17,0 -0.73,0.04l0,0q-0.52,0 -0.65,0l0,0l0,-0.73q0.73,0.04 0.9,0.04l0,0l0.48,0q0,-0.73 -0.09,-1.12l0,0q0.99,0 0.99,0.13l0,0q0,0.05 -0.04,0.13l0,0q-0.09,0.17 -0.13,0.35l0,0q0,0.25 0,0.51l0,0l0.64,0q0.13,0 0.65,-0.04l0,0q0.47,0 0.6,0l0,0q0,0.26 -0.04,0.94l0,0l0,0.52q0.6,0 0.9,-0.04l0,0l0,0.81q-0.3,-0.04 -0.86,-0.04l0,0l0,0.47q0,0.78 0.04,1.03l0,0q-0.26,-0.04 -1.42,-0.08l0,0l-0.56,0l0,0.77l0.65,0q1.16,-0.04 1.5,-0.08l0,0l0,0.77q-0.17,0 -0.73,-0.04l0,0q-0.56,0 -0.77,0l0,0l-0.65,0l0,0.77l0.91,0q0.99,0 1.33,-0.04l0,0l0,0.77q-0.17,0 -0.77,-0.04l0,0q-0.48,0 -0.56,0l0,0l-0.91,0l0,1.03q0.43,0.04 1.68,-0.09l0,0q0.3,0 1.03,-0.13l0,0q-0.21,0.39 -0.47,0.86l0,0q-0.04,0.13 -0.09,0.17l0,0q-1.67,0 -2.27,-0.08l0,0q-2.97,-0.17 -3.36,-1.03l0,0q-0.38,0.51 -0.98,1.16l0,0l-0.82,-0.43q0,0.34 0,0.81l0,0l-0.82,0q0.05,-0.43 0.05,-1.97l0,0l0,-3.96q-0.39,0.73 -0.82,1.51l0,0q-0.22,-0.6 -0.56,-0.9l0,0q1.33,-2.15 1.85,-4.64zm6.66,2.7l0,-0.81l-1.08,0l0,0.81l1.08,0zm0,0.65l-1.08,0l0,0.81l1.08,0l0,-0.81zm7.05,-3.1l0.98,-0.21q0.35,0.77 0.43,1.16l0,0l2.19,0q0.35,0 0.99,-0.04l0,0q0.43,0 0.56,0l0,0l0,0.81q-0.21,-0.04 -1.55,-0.04l0,0l-2.23,0l0,0.77l0.9,0q1.12,0 1.89,-0.08l0,0q-0.04,0.3 -0.08,1.11l0,0l0,0.26q0.94,0 1.2,-0.04l0,0l0,0.73q-0.43,-0.04 -1.2,-0.04l0,0l0,0.43q0,0.55 0.08,0.98l0,0q0,0.05 0,0.05l0,0q-0.21,-0.05 -1.46,-0.05l0,0l-0.9,0q0.22,0.52 0.73,1.21l0,0q0.69,-0.6 1.12,-1.03l0,0q0.64,0.38 0.64,0.55l0,0q-0.04,0.09 -0.17,0.13l0,0q-0.17,0.05 -0.26,0.13l0,0q-0.08,0.05 -0.43,0.3l0,0q-0.3,0.22 -0.47,0.35l0,0q0.95,0.73 2.41,0.9l0,0q-0.65,0.43 -0.91,0.86l0,0q-1.2,-0.52 -2.06,-1.33l0,0q-0.6,-0.65 -1.03,-1.51l0,0l0,2.28q0.26,0.99 -1.63,1.03l0,0q-0.09,-0.6 -0.35,-0.99l0,0q1.29,0.26 1.16,-0.3l0,0l0,-0.99q-1.28,0.91 -2.62,1.46l0,0l-0.47,-0.64q1.33,-0.47 3.05,-1.63l0,0l0,-0.78l-1.2,0q-0.95,0.05 -1.21,0.05l0,0l0,-0.73q0.39,0.04 1.21,0.04l0,0l1.2,0l0,-0.73l-2.88,0q-0.04,1.37 -0.26,2.36l0,0q-0.25,1.21 -0.98,2.37l0,0q-0.05,-0.05 -0.18,-0.09l0,0q-0.3,-0.17 -0.81,-0.26l0,0q1.29,-1.55 1.37,-3.48l0,0l0.05,-1.63l0,-1.42q0,-0.34 -0.05,-0.9l0,0q0,-0.35 0,-0.47l0,0q0.22,0 0.6,0l0,0q0.52,0.04 0.86,0.04l0,0l2.28,0q-0.26,-0.6 -0.51,-0.95l0,0zm0.51,2.45l0,-0.77l-2.88,0l0,2.1l2.88,0l0,-0.68l-1.24,0q-0.95,0 -1.21,0.04l0,0l0,-0.73q0.3,0 1.16,0.04l0,0l1.29,0zm2.79,1.33l0,-0.68l-1.93,0l0,0.68l1.93,0zm0,1.38l0,-0.73l-1.93,0l0,0.73l1.93,0zm-5.24,1.42l0.56,-0.52l1.03,0.82l-0.64,0.56q-0.6,-0.69 -0.95,-0.86l0,0z" id="svg_48" transform="translate(-0.73046875, 8.9375)"/>
     </g>
    </g>
   </g>
  </g>
 </mask>

 <defs>
  <filter filterUnits="userSpaceOnUse" id="9945299e-b9c8-4b1d-bf3f-95c39b934e06">
   <feColorMatrix type="matrix" values="0 0 0 0 0.99609375  0 0 0 0 0.99609375  0 0 0 0 0.99609375  0 0 0 1 0"/>
  </filter>
 </defs>
 <mask id="81a8e1cb-314c-4e37-9e42-bf7e70b44451">
  <g filter="url(#9945299e-b9c8-4b1d-bf3f-95c39b934e06)" id="svg_49" mask="url(#338f4fb3-26a0-4354-a78c-6c54dfcbea12)">
   <g id="svg_50">
    <rect class="image-rect" fill="#1c085d" fill-opacity="0" height="78.01" id="svg_51" stroke-width="2" width="82.5" x="0" y="0"/>
    <g id="svg_9">
     <svg class="image-svg-svg primary" height="78.01" id="svg_52" width="82.5" x="0" y="0">
      <g id="svg_10">
       <svg id="svg_53" viewBox="-0.0000762939453125 -0.0000457763671875 266.780029296875 252.2550811767578" xmlns="http://www.w3.org/2000/svg">
        <title>1</title>
        <g fill="#F06F1D" fill-rule="evenodd" id="svg_54">
         <path d="m64.39,32.48c-114.2,7.43 -65.53,304.97 110.66,195.68c80.29,-49.79 103.05,-97.04 86.82,-132.75c-19.66,-43.21 -96.43,-69.5 -197.48,-62.93" fill-opacity="0.6" id="svg_55"/>
         <path d="m237.48,203.51c-31.48,42.05 -126.09,45.62 -177.69,7.25c-46.55,-34.62 -77.79,-123.86 -48.28,-163.91c32.25,-43.77 125,-45.71 177.69,-7.25c53.92,39.34 82.33,118.43 48.28,163.91" fill-opacity="0.7" id="svg_56"/>
         <path d="m235.98,107.15c-12.34,-62.68 -57.38,-174.26 -168.57,-53.1c-111.2,121.16 -54.57,167.91 44.97,170.43c99.54,2.53 135.94,-54.65 123.6,-117.33" fill-opacity="0.7" id="svg_57"/>
        </g>
       </svg>
      </g>
     </svg>
    </g>

   </g>
  </g>
 </mask>
</svg>