<svg
    data-v-0dd9719b=""
    version="1.0"
    xmlns="http://www.w3.org/2000/svg"
    xmlns:xlink="http://www.w3.org/1999/xlink"
    width="100%"
    height="100%"
    viewBox="0 0 340.000000 250.000000"
    preserveAspectRatio="xMidYMid meet"
    color-interpolation-filters="sRGB"
    style="margin: auto"
>
    <g data-v-0dd9719b="" class="iconmbgsvg" transform="translate(63.852500915527344,86.99691009521484)">
        <g fill="#1c085d" hollow-target="text">
            <g mask="url(#81a8e1cb-314c-4e37-9e42-bf7e70b44451)">
                <g>
                    <rect
                        fill="#1c085d"
                        fill-opacity="0"
                        stroke-width="2"
                        x="0"
                        y="0"
                        width="82.5"
                        height="78.0082830613287"
                        class="image-rect"
                    ></rect>
                    <svg
                        filter="url(#colors810980553)"
                        x="0"
                        y="0"
                        width="82.5"
                        height="78.0082830613287"
                        filtersec="colorsf2579709706"
                        class="image-svg-svg primary"
                        style="overflow: visible"
                    >
                        <svg
                            viewBox="-0.0000762939453125 -0.0000457763671875 266.780029296875 252.2550811767578"
                            xmlns="http://www.w3.org/2000/svg"
                        >
                            <title>1</title>
                            <g fill="#F06F1D" fill-rule="evenodd">
                                <path
                                    d="M64.388 32.481c-114.196 7.43-65.53 304.966 110.662 195.684 80.292-49.799 103.052-97.049 86.816-132.75-19.653-43.213-96.431-69.508-197.478-62.934"
                                    fill-opacity=".6"
                                ></path>
                                <path
                                    d="M237.484 203.508c-31.48 42.052-126.095 45.623-177.69 7.251-46.55-34.618-77.796-123.858-48.28-163.912C43.764 3.08 136.507 1.138 189.204 39.597c53.915 39.347 82.324 118.435 48.28 163.911"
                                    fill-opacity=".7"
                                ></path>
                                <path
                                    d="M235.98 107.152C223.636 44.47 178.601-67.11 67.407 54.051c-111.195 121.163-54.569 167.91 44.974 170.433 99.543 2.524 135.94-54.649 123.597-117.332"
                                    fill-opacity=".7"
                                ></path>
                            </g>
                        </svg>
                    </svg>
                    <defs>
                        <filter id="colors810980553">
                            <feColorMatrix
                                type="matrix"
                                values="0 0 0 0 0.2109375  0 0 0 0 0.19921875  0 0 0 0 0.51171875  0 0 0 1 0"
                                class="icon-fecolormatrix"
                            ></feColorMatrix>
                        </filter>
                        <filter id="colorsf2579709706">
                            <feColorMatrix
                                type="matrix"
                                values="0 0 0 0 0.99609375  0 0 0 0 0.99609375  0 0 0 0 0.99609375  0 0 0 1 0"
                                class="icon-fecolormatrix"
                            ></feColorMatrix>
                        </filter>
                        <filter id="colorsb6447511854">
                            <feColorMatrix
                                type="matrix"
                                values="0 0 0 0 0  0 0 0 0 0  0 0 0 0 0  0 0 0 1 0"
                                class="icon-fecolormatrix"
                            ></feColorMatrix>
                        </filter>
                    </defs>
                </g>
                <rect
                    v-gra="id"
                    width="94.50000762939453"
                    height="90.00828552246094"
                    transform="translate(-6, -6)"
                    style="pointer-events: none"
                    fill="url(#Iw-3B9WgSuJpK0WbnQPDc)"
                ></rect>
            </g>
            <g transform="translate(40.20500564575195,16.00039291381836)">
                <g data-gra="path-name" fill-rule="" class="tp-name" transform="translate(0,0)">
                    <g transform="scale(1)">
                        <g>
                            <path
                                d="M40.17-25.34L41.84-25.34 41.84-23.14Q41.84-22.88 41.65-22.68 41.45-22.48 41.18-22.48L41.18-22.48 40.17-22.48 40.17-21.21Q40.17-18.96 38.65-17.78 37.14-16.59 34.72-16.59L34.72-16.59 32.21-16.59 32.21-12.58 39.73-12.58 39.73-10.38Q39.73-10.12 39.53-9.92 39.34-9.72 39.07-9.72L39.07-9.72 32.21-9.72 32.21-6.51 40.96-6.51 40.96-4.31Q40.96-4.05 40.77-3.85 40.57-3.65 40.3-3.65L40.3-3.65 32.21-3.65 32.21-0.09Q32.21 0.18 32.01 0.37 31.81 0.57 31.55 0.57L31.55 0.57 27.37 0.57 27.37-3.65 20.42-3.65 20.42-6.51 27.37-6.51 27.37-9.68 21.6-9.68 21.6-12.54 27.37-12.54 27.37-16.59 21.91-16.59 21.91-19.45 27.37-19.45 27.37-22.48 21.03-22.48 21.03-25.34 27.37-25.34 27.37-28.56 21.91-28.56 21.91-31.42 27.37-31.42 27.37-35.42 32.21-35.42 32.21-31.42 40.17-31.42 40.17-25.34ZM11.62-34.76Q11.18-29.92 9.72-25.17L9.72-25.17 9.72 3.92Q9.72 4.18 9.53 4.38 9.33 4.58 9.06 4.58L9.06 4.58 4.88 4.58 4.88-15.93Q3.65-14.52 2.02-13.55L2.02-13.55 2.02-16.85Q3.39-18.57 4.73-23.83 6.07-29.08 6.78-34.76L6.78-34.76 11.62-34.76ZM17.12-3.43Q18.79-1.23 21.19-0.02 23.58 1.19 26.49 1.19L26.49 1.19 41.8 1.19 41.36 3.39Q41.18 4.05 40.7 4.05L40.7 4.05 26.71 4.05Q19.76 4.05 15.62-0.75L15.62-0.75Q13.86 1.8 10.43 4.22L10.43 4.22 10.43 1.36Q12.54-0.75 13.64-3.56L13.64-3.56Q11.35-7.74 10.69-13.82L10.69-13.82 13.73-13.68Q13.86-10.52 14.87-7.66L14.87-7.66Q15.62-11.35 15.93-16.85L15.93-16.85 11.53-16.85 11.53-19.71 12.89-19.71Q14.26-21.52 15.22-23.96 16.19-26.4 16.46-29.08L16.46-29.08 11.53-29.08 11.53-31.94 20.55-31.94 20.55-29.08Q20.28-26.88 18.88-24.29 17.47-21.69 15.71-19.71L15.71-19.71 20.33-19.71 20.33-16.85Q19.71-12.14 18.94-8.93 18.17-5.72 17.12-3.43L17.12-3.43ZM32.21-28.56L32.21-25.34 35.33-25.34 35.33-28.56 32.21-28.56ZM35.33-20.99L35.33-22.48 32.21-22.48 32.21-19.45 33.79-19.45Q35.33-19.45 35.33-20.99L35.33-20.99ZM78.36-11.35L71.32-11.35 71.32-10.87Q72.82-8.14 75.37-5.94L75.37-5.94Q77.79-7.74 79.6-10.78L79.6-10.78 84.88-10.78Q82.41-6.38 78.28-3.65L78.28-3.65Q80.08-2.38 81.82-1.41 83.56-0.44 85.98 0.75L85.98 0.75 85.98 3.61Q85.58 3.48 85.23 3.37 84.88 3.26 84.57 3.12L84.57 3.12Q80.17 1.58 77.04 0.09 73.92-1.41 71.32-3.92L71.32-3.92 71.32-1.01Q71.32 3.61 66.7 3.61L66.7 3.61 60.19 3.61 60.19 0.75 64.94 0.75Q66.48 0.75 66.48-0.79L66.48-0.79 66.48-3.74Q64.99-2.55 61.97-1.1 58.96 0.35 52.62 3.12L52.62 3.12 52.62-1.1Q53.06-1.32 55.79-2.46L55.79-2.46 59.31-3.96Q57.42-7.79 55.4-10.74L55.4-10.74 60.24-10.74Q61.47-8.18 62.35-5.37L62.35-5.37Q65.21-6.86 66.48-7.83L66.48-7.83 66.48-11.35 55.57-11.35 55.57-14.21 66.48-14.21 66.48-16.94 54.43-16.94Q54.21-10.56 53.24-6.4 52.27-2.24 50.51 0.24 48.75 2.73 46.02 4.05L46.02 4.05 46.02 0.75Q48.18-1.32 48.91-6.84 49.63-12.36 49.63-20.77L49.63-20.77 49.63-31.42 66.75-31.42Q65.25-33.26 63.32-35.42L63.32-35.42 68.6-35.42Q69.56-34.19 70.05-33.35 70.53-32.52 71.06-31.42L71.06-31.42 85.01-31.42 85.01-29.22Q85.01-28.95 84.81-28.75 84.61-28.56 84.35-28.56L84.35-28.56 54.47-28.56 54.47-20.68 54.47-19.8 66.48-19.8 66.48-22.4 56.14-22.4 56.14-25.26 66.48-25.26 66.48-27.72 71.32-27.72 71.32-25.26 82.98-25.26 82.98-19.8 85.98-19.8 85.98-17.6Q85.98-17.34 85.78-17.14 85.58-16.94 85.32-16.94L85.32-16.94 82.98-16.94 82.98-15.97Q82.98-11.35 78.36-11.35L78.36-11.35ZM71.32-22.4L71.32-19.8 78.14-19.8 78.14-22.4 71.32-22.4ZM71.32-16.94L71.32-14.21 76.6-14.21Q78.14-14.21 78.14-15.75L78.14-15.75 78.14-16.94 71.32-16.94ZM113.34-29.3L129.36-29.3 129.36-27.1Q129.36-26.84 129.16-26.64 128.96-26.44 128.7-26.44L128.7-26.44 105.34-26.44 105.34-18.57 123.86-18.57 123.86-16.37Q123.86-16.24 123.82-16.19L123.82-16.19 123.42-1.63Q123.42 2.99 118.8 2.99L118.8 2.99 108.02 2.99 108.02 0.13 117.04 0.13Q118.58 0.13 118.58-1.41L118.58-1.41 118.98-15.71 105.25-15.71Q104.68-8.67 101-3.59 97.33 1.5 90.82 4.31L90.82 4.31 90.82 1.01Q93.68-0.44 95.88-3.34 98.08-6.25 99.29-10.19 100.5-14.12 100.5-18.57L100.5-18.57 100.5-26.44 90.6-26.44 90.6-29.3 109.3-29.3Q107.32-32.82 104.68-35.33L104.68-35.33 110.4-35.33Q111.41-34.06 112-32.74 112.6-31.42 113.34-29.3L113.34-29.3ZM167.77-16.15L174.11-16.15 174.11-13.95Q174.11-13.68 173.91-13.49 173.71-13.29 173.45-13.29L173.45-13.29 167.77-13.29 167.77-1.06Q167.77 3.56 163.15 3.56L163.15 3.56 155.54 3.56 155.54 0.7 161.39 0.7Q162.93 0.7 162.93-0.84L162.93-0.84 162.93-13.29 145.6-13.29Q145.42-8.36 144.56-4.97 143.7-1.58 141.55 0.86 139.39 3.3 135.48 4.58L135.48 4.58 135.48 1.28Q138.47-0.31 139.55-3.85 140.62-7.39 140.76-13.29L140.76-13.29 134.02-13.29 134.02-16.15 140.8-16.15 140.8-18 140.8-30.58 150.39-30.58Q151.58-32.74 151.76-35.42L151.76-35.42 157.04-35.42Q156.11-32.78 154.48-30.58L154.48-30.58 167.77-30.58 167.77-16.15ZM145.64-16.15L162.93-16.15 162.93-27.72 145.64-27.72 145.64-17.56 145.64-16.15ZM153.91-26.27Q155.14-24.64 156.6-21.98 158.05-19.32 158.93-17.38L158.93-17.38 155.63-17.38Q155.23-18.13 152.92-21.1 150.61-24.07 148.63-26.27L148.63-26.27 153.91-26.27ZM158.93-2.51L155.63-2.51Q155.23-3.26 152.92-6.23 150.61-9.2 148.63-11.4L148.63-11.4 153.91-11.4Q155.14-9.77 156.6-7.11 158.05-4.44 158.93-2.51L158.93-2.51Z"
                                transform="translate(-2.0199999809265137, 35.41999816894531)"
                            ></path>
                        </g>
                        <!---->
                        <!---->
                        <!---->
                        <!---->
                        <!---->
                        <!---->
                        <!---->
                    </g>
                </g>
                <g
                    data-gra="path-slogan"
                    fill-rule=""
                    class="tp-slogan"
                    fill="url(#5e623038-202d-424f-8610-681b1ce6ecc8)"
                    transform="translate(99.79499816894531,-18)"
                >
                    <!---->
                    <!---->
                    <g transform="scale(1, 1)">
                        <g transform="scale(1)">
                            <path
                                d="M6.66-5.89L6.66-5.89Q7.61-5.93 7.82-5.80L7.82-5.80Q7.82-5.71 7.73-5.54L7.73-5.54Q7.65-5.29 7.65-5.16L7.65-5.16L7.65-4.21L8.34-4.21Q9.75-4.21 10.23-4.30L10.23-4.30L10.23-3.31Q9.45-3.39 8.38-3.39L8.38-3.39L7.65-3.39L7.65 0.09Q7.52 0.77 5.80 0.90L5.80 0.90Q5.71 0.39 5.37-0.09L5.37-0.09Q6.66 0 6.70-0.26L6.70-0.26L6.70-3.39L2.71-3.39Q1.63-3.39 0.73-3.31L0.73-3.31L0.73-4.25Q1.20-4.21 2.66-4.21L2.66-4.21L6.70-4.21L6.70-5.29Q6.70-5.93 6.66-5.89ZM2.28-2.58L3.14-3.05Q4.08-1.93 4.47-1.25L4.47-1.25L3.52-0.82Q3.48-0.90 3.35-1.12L3.35-1.12Q2.79-2.15 2.28-2.58L2.28-2.58ZM4.73-8.55L5.80-8.64Q5.89-8.38 5.97-7.99L5.97-7.99Q6.23-7.18 6.27-7.26L6.27-7.26L8.38-7.26Q8.89-7.22 9.75-7.30L9.75-7.30Q9.71-7.18 9.71-6.57L9.71-6.57L9.71-6.40Q9.71-5.80 9.80-5.33L9.80-5.33L8.68-5.33Q8.77-5.76 8.77-6.14L8.77-6.14L8.77-6.45L2.06-6.45L2.06-6.19Q2.06-5.54 2.11-5.24L2.11-5.24L1.07-5.24Q1.16-5.63 1.16-6.23L1.16-6.23L1.16-6.49Q1.16-6.70 1.12-7.00L1.12-7.00Q1.12-7.22 1.12-7.30L1.12-7.30Q1.80-7.26 2.23-7.26L2.23-7.26L5.20-7.26Q4.98-7.91 4.73-8.55L4.73-8.55ZM17.62-8.68L18.56-8.94Q19.04-8.21 19.34-7.30L19.34-7.30L18.39-7.00Q18.22-7.69 17.62-8.68L17.62-8.68ZM13.28-8.85L13.28-8.85Q13.41-8.85 13.71-8.81L13.71-8.81Q14.44-8.81 14.39-8.72L14.39-8.72Q14.39-8.68 14.35-8.59L14.35-8.59Q14.22-8.34 14.22-7.86L14.22-7.86L14.22-6.45L14.57-6.45Q15.21-6.45 15.68-6.53L15.68-6.53Q15.73-6.53 15.73-6.53L15.73-6.53L15.73-5.50Q15.73-5.50 15.68-5.50L15.68-5.50Q15.30-5.59 14.57-5.59L14.57-5.59L14.22-5.59L14.22-4.04L15.64-4.55L15.73-3.65L14.22-3.18L14.22-0.09Q14.48 0.90 12.63 0.99L12.63 0.99Q12.59 0.34 12.20-0.04L12.20-0.04Q13.49 0.21 13.36-0.52L13.36-0.52L13.36-2.92L11.86-2.32L11.56-3.31L13.36-3.78L13.36-5.59L12.98-5.59Q12.38-5.59 11.77-5.46L11.77-5.46Q11.64-5.46 11.64-5.46L11.64-5.46L11.64-6.53Q11.64-6.53 11.77-6.53L11.77-6.53Q12.29-6.45 12.98-6.45L12.98-6.45L13.36-6.45L13.36-7.86Q13.36-8.34 13.28-8.72L13.28-8.72Q13.28-8.81 13.28-8.85ZM20.07-6.14L17.10-6.14L17.10-4.13L20.07-4.13L20.07-6.14ZM17.49-6.96L19.72-6.96Q20.32-6.96 20.97-7.00L20.97-7.00Q21.05-7.00 21.05-7.00L21.05-7.00Q21.05-6.92 21.05-6.70L21.05-6.70Q21.01-6.14 21.01-5.71L21.01-5.71L21.01-4.13Q21.01-3.31 21.10-2.71L21.10-2.71Q21.10-2.58 21.10-2.54L21.10-2.54L19.98-2.54Q20.07-2.66 20.07-3.35L20.07-3.35L17.14-3.35Q17.14-0.43 15.64 1.07L15.64 1.07Q15.13 0.77 14.52 0.64L14.52 0.64Q15.81-0.30 16.07-1.68L16.07-1.68Q16.41-3.01 16.24-7.05L16.24-7.05Q16.63-6.96 17.49-6.96L17.49-6.96ZM27.76-8.89L27.76-8.89Q28.66-8.55 28.75-8.38L28.75-8.38Q28.75-8.38 28.70-8.34L28.70-8.34Q28.40-8.21 27.84-7.48L27.84-7.48L30.21-7.48Q31.75-7.48 32.23-7.56L32.23-7.56Q31.80-6.49 31.37-5.59L31.37-5.59Q31.07-5.71 30.38-5.80L30.38-5.80Q30.77-6.27 30.98-6.66L30.98-6.66L27.33-6.66Q26.86-6.14 26.60-5.89L26.60-5.89Q26.38-5.67 26.17-5.41L26.17-5.41Q25.87-5.76 25.31-5.97L25.31-5.97Q26.81-6.83 27.76-8.89ZM24.62-8.81L24.62-8.81Q25.82-8.34 25.74-8.21L25.74-8.21Q25.74-8.21 25.70-8.21L25.70-8.21Q25.44-8.08 24.88-7.26L24.88-7.26L24.88-4.04Q24.88-2.96 24.96-2.54L24.96-2.54L23.89-2.54Q23.98-3.05 24.02-4.00L24.02-4.00L24.02-6.10Q23.50-5.33 23.07-4.77L23.07-4.77Q22.86-5.20 22.39-5.59L22.39-5.59Q23.93-6.75 24.62-8.81ZM28.40-6.45L28.40-6.45Q29.35-6.40 29.56-6.32L29.56-6.32Q29.56-6.32 29.52-6.27L29.52-6.27Q29.30-5.89 29.30-5.46L29.30-5.46L29.30-3.65Q29.56-2.54 27.71-2.49L27.71-2.49Q27.71-3.05 27.37-3.52L27.37-3.52Q28.57-3.18 28.45-3.95L28.45-3.95L28.45-5.76Q28.45-5.93 28.40-6.45ZM26.90-5.41L26.90-5.41Q27.59-5.16 27.84-4.94L27.84-4.94Q27.84-4.90 27.76-4.90L27.76-4.90Q27.50-4.77 27.24-4.38L27.24-4.38Q27.16-4.25 26.81-3.78L26.81-3.78Q26.47-3.31 26.34-3.14L26.34-3.14Q25.95-3.39 25.39-3.52L25.39-3.52Q26.43-4.25 26.90-5.41ZM29.78-4.86L30.42-5.33Q31.11-4.86 32.14-3.82L32.14-3.82L31.37-3.14Q30.72-4.08 29.78-4.86L29.78-4.86ZM27.03-2.02L27.84-2.32Q28.36-1.72 28.70-0.90L28.70-0.90L27.80-0.56Q27.50-1.46 27.03-2.02L27.03-2.02ZM29.78-1.89L30.59-2.32Q31.45-1.46 32.44-0.17L32.44-0.17L31.45 0.34Q31.02-0.60 29.78-1.89L29.78-1.89ZM25.44-1.07L25.39-2.06Q26.34-2.02 26.55-1.89L26.55-1.89Q26.55-1.85 26.51-1.80L26.51-1.80Q26.34-1.50 26.34-1.12L26.34-1.12L26.34-0.30Q26.21 0.21 27.16 0.13L27.16 0.13L28.14 0.13Q29.56 0.34 29.52-0.99L29.52-0.99Q29.91-0.47 30.51-0.26L30.51-0.26Q30.08 1.12 28.62 0.90L28.62 0.90L26.86 0.90Q25.18 1.03 25.44 0L25.44 0L25.44-1.07ZM23.72-1.98L23.72-1.98Q24.84-1.80 24.79-1.68L24.79-1.68Q24.79-1.68 24.75-1.68L24.75-1.68Q24.62-1.63 24.49-1.20L24.49-1.20Q24.45-1.12 24.41-0.90L24.41-0.90Q23.98 0.21 23.76 0.60L23.76 0.60Q23.29 0.30 22.73 0.21L22.73 0.21Q23.55-0.60 23.72-1.98ZM39.79-8.94L39.79-8.94Q40.95-8.59 40.95-8.46L40.95-8.46Q40.95-8.42 40.86-8.38L40.86-8.38Q40.69-8.29 40.65-8.12L40.65-8.12Q40.26-7.48 40.05-6.79L40.05-6.79L41.64-6.79Q42.58-6.79 43.10-6.83L43.10-6.83Q42.75-1.20 42.67-0.21L42.67-0.21Q42.54 0.99 40.30 1.07L40.30 1.07Q40.18 0.43 39.79-0.04L39.79-0.04Q40.95 0.17 41.55-0.09L41.55-0.09Q41.85-0.04 41.98-3.91L41.98-3.91Q42.07-5.29 42.11-6.10L42.11-6.10L39.75-6.10Q39.32-5.29 38.71-4.21L38.71-4.21Q38.33-4.47 37.94-4.55L37.94-4.55L37.94-0.69Q37.94 0.39 37.98 0.69L37.98 0.69L37.00 0.69Q37.04 0.30 37.04-0.34L37.04-0.34L34.93-0.34Q34.93 0.30 34.98 0.77L34.98 0.77L33.99 0.77Q34.03 0.39 34.03-0.64L34.03-0.64L34.03-5.24Q34.03-5.41 33.99-6.06L33.99-6.06Q33.99-6.62 33.99-6.75L33.99-6.75Q34.63-6.70 34.93-6.70L34.93-6.70L35.23-6.70Q35.36-7.39 35.45-8.81L35.45-8.81Q36.65-8.68 36.57-8.51L36.57-8.51Q36.57-8.42 36.48-8.34L36.48-8.34Q36.39-8.25 36.35-8.12L36.35-8.12Q36.22-7.82 36.09-7.26L36.09-7.26Q36.01-6.92 35.96-6.70L35.96-6.70L36.70-6.70Q37.04-6.70 37.98-6.75L37.98-6.75Q37.94-6.45 37.94-5.37L37.94-5.37L37.94-4.77Q39.27-6.27 39.79-8.94ZM37.04-6.02L34.93-6.02L34.93-3.78L37.04-3.78L37.04-6.02ZM39.06-3.82L39.79-4.25Q40.05-3.91 40.69-2.66L40.69-2.66Q40.86-2.41 40.91-2.28L40.91-2.28L40.09-1.85Q39.96-2.36 39.06-3.82L39.06-3.82ZM37.04-3.14L34.93-3.14L34.93-1.03L37.04-1.03L37.04-3.14ZM46.15-8.89L46.15-8.89Q46.28-8.85 46.49-8.81L46.49-8.81Q47.31-8.55 47.22-8.46L47.22-8.46Q47.18-8.34 47.09-8.21L47.09-8.21Q46.96-8.04 46.92-7.91L46.92-7.91Q46.54-7.05 46.45-6.53L46.45-6.53L46.45 0.17Q47.09-0.21 47.65-1.03L47.65-1.03Q47.14-1.85 46.79-3.22L46.79-3.22L47.61-3.39Q47.78-2.49 48.13-1.72L48.13-1.72Q48.47-2.75 48.55-3.95L48.55-3.95Q48.21-3.95 47.39-3.82L47.39-3.82Q47.35-3.82 47.31-3.82L47.31-3.82L47.09-4.60Q47.44-4.68 47.61-5.16L47.61-5.16Q47.70-5.33 47.87-5.93L47.87-5.93Q48.08-6.53 48.21-6.92L48.21-6.92Q47.78-6.92 47.22-6.88L47.22-6.88L47.22-7.69Q47.95-7.65 48.21-7.65L48.21-7.65Q48.98-7.65 49.20-7.69L49.20-7.69Q49.29-7.65 49.24-7.61L49.24-7.61Q49.07-7.09 48.73-6.10L48.73-6.10Q48.43-5.20 48.25-4.73L48.25-4.73L49.20-4.81Q49.07-2.49 48.60-1.07L48.60-1.07Q48.98-0.60 49.84-0.39L49.84-0.39Q50.40-0.26 50.83-0.21L50.83-0.21Q51.00-0.21 51.05-0.17L51.05-0.17L51.05-1.20L50.70-1.20Q49.71-1.20 49.33-1.16L49.33-1.16L49.33-1.89Q49.76-1.85 50.70-1.85L50.70-1.85L51.05-1.85L51.05-2.62Q50.96-2.62 50.75-2.62L50.75-2.62Q50.02-2.66 49.59-2.58L49.59-2.58L49.59-3.35Q50.02-3.31 51.05-3.31L51.05-3.31L51.05-4.04Q49.97-4.04 49.59-4.00L49.59-4.00L49.59-4.81Q50.02-4.77 51.05-4.77L51.05-4.77L51.05-5.54L50.49-5.54Q49.67-5.54 49.29-5.50L49.29-5.50L49.29-6.23Q49.50-6.23 49.89-6.19L49.89-6.19Q50.23-6.19 50.36-6.19L50.36-6.19L51.05-6.19L51.05-7.00Q50.88-7.00 50.32-6.96L50.32-6.96Q49.80-6.96 49.67-6.96L49.67-6.96L49.67-7.69Q50.40-7.65 50.57-7.65L50.57-7.65L51.05-7.65Q51.05-8.38 50.96-8.77L50.96-8.77Q51.95-8.77 51.95-8.64L51.95-8.64Q51.95-8.59 51.91-8.51L51.91-8.51Q51.82-8.34 51.78-8.16L51.78-8.16Q51.78-7.91 51.78-7.65L51.78-7.65L52.42-7.65Q52.55-7.65 53.07-7.69L53.07-7.69Q53.54-7.69 53.67-7.69L53.67-7.69Q53.67-7.43 53.63-6.75L53.63-6.75L53.63-6.23Q54.23-6.23 54.53-6.27L54.53-6.27L54.53-5.46Q54.23-5.50 53.67-5.50L53.67-5.50L53.67-5.03Q53.67-4.25 53.71-4.00L53.71-4.00Q53.45-4.04 52.29-4.08L52.29-4.08L51.73-4.08L51.73-3.31L52.38-3.31Q53.54-3.35 53.88-3.39L53.88-3.39L53.88-2.62Q53.71-2.62 53.15-2.66L53.15-2.66Q52.59-2.66 52.38-2.66L52.38-2.66L51.73-2.66L51.73-1.89L52.64-1.89Q53.63-1.89 53.97-1.93L53.97-1.93L53.97-1.16Q53.80-1.16 53.20-1.20L53.20-1.20Q52.72-1.20 52.64-1.20L52.64-1.20L51.73-1.20L51.73-0.17Q52.16-0.13 53.41-0.26L53.41-0.26Q53.71-0.26 54.44-0.39L54.44-0.39Q54.23 0 53.97 0.47L53.97 0.47Q53.93 0.60 53.88 0.64L53.88 0.64Q52.21 0.64 51.61 0.56L51.61 0.56Q48.64 0.39 48.25-0.47L48.25-0.47Q47.87 0.04 47.27 0.69L47.27 0.69L46.45 0.26Q46.45 0.60 46.45 1.07L46.45 1.07L45.63 1.07Q45.68 0.64 45.68-0.90L45.68-0.90L45.68-4.86Q45.29-4.13 44.86-3.35L44.86-3.35Q44.64-3.95 44.30-4.25L44.30-4.25Q45.63-6.40 46.15-8.89ZM52.81-6.19L52.81-7.00L51.73-7.00L51.73-6.19L52.81-6.19ZM52.81-5.54L51.73-5.54L51.73-4.73L52.81-4.73L52.81-5.54ZM59.86-8.64L60.84-8.85Q61.19-8.08 61.27-7.69L61.27-7.69L63.46-7.69Q63.81-7.69 64.45-7.73L64.45-7.73Q64.88-7.73 65.01-7.73L65.01-7.73L65.01-6.92Q64.80-6.96 63.46-6.96L63.46-6.96L61.23-6.96L61.23-6.19L62.13-6.19Q63.25-6.19 64.02-6.27L64.02-6.27Q63.98-5.97 63.94-5.16L63.94-5.16L63.94-4.90Q64.88-4.90 65.14-4.94L65.14-4.94L65.14-4.21Q64.71-4.25 63.94-4.25L63.94-4.25L63.94-3.82Q63.94-3.27 64.02-2.84L64.02-2.84Q64.02-2.79 64.02-2.79L64.02-2.79Q63.81-2.84 62.56-2.84L62.56-2.84L61.66-2.84Q61.88-2.32 62.39-1.63L62.39-1.63Q63.08-2.23 63.51-2.66L63.51-2.66Q64.15-2.28 64.15-2.11L64.15-2.11Q64.11-2.02 63.98-1.98L63.98-1.98Q63.81-1.93 63.72-1.85L63.72-1.85Q63.64-1.80 63.29-1.55L63.29-1.55Q62.99-1.33 62.82-1.20L62.82-1.20Q63.77-0.47 65.23-0.30L65.23-0.30Q64.58 0.13 64.32 0.56L64.32 0.56Q63.12 0.04 62.26-0.77L62.26-0.77Q61.66-1.42 61.23-2.28L61.23-2.28L61.23 0Q61.49 0.99 59.60 1.03L59.60 1.03Q59.51 0.43 59.25 0.04L59.25 0.04Q60.54 0.30 60.41-0.26L60.41-0.26L60.41-1.25Q59.13-0.34 57.79 0.21L57.79 0.21L57.32-0.43Q58.65-0.90 60.37-2.06L60.37-2.06L60.37-2.84L59.17-2.84Q58.22-2.79 57.96-2.79L57.96-2.79L57.96-3.52Q58.35-3.48 59.17-3.48L59.17-3.48L60.37-3.48L60.37-4.21L57.49-4.21Q57.45-2.84 57.23-1.85L57.23-1.85Q56.98-0.64 56.25 0.52L56.25 0.52Q56.20 0.47 56.07 0.43L56.07 0.43Q55.77 0.26 55.26 0.17L55.26 0.17Q56.55-1.38 56.63-3.31L56.63-3.31L56.68-4.94L56.68-6.36Q56.68-6.70 56.63-7.26L56.63-7.26Q56.63-7.61 56.63-7.73L56.63-7.73Q56.85-7.73 57.23-7.73L57.23-7.73Q57.75-7.69 58.09-7.69L58.09-7.69L60.37-7.69Q60.11-8.29 59.86-8.64L59.86-8.64ZM60.37-6.19L60.37-6.96L57.49-6.96L57.49-4.86L60.37-4.86L60.37-5.54L59.13-5.54Q58.18-5.54 57.92-5.50L57.92-5.50L57.92-6.23Q58.22-6.23 59.08-6.19L59.08-6.19L60.37-6.19ZM63.16-4.86L63.16-5.54L61.23-5.54L61.23-4.86L63.16-4.86ZM63.16-3.48L63.16-4.21L61.23-4.21L61.23-3.48L63.16-3.48ZM57.92-2.06L58.48-2.58L59.51-1.76L58.87-1.20Q58.27-1.89 57.92-2.06L57.92-2.06Z"
                                transform="translate(-0.73046875, 8.9375)"
                            ></path>
                        </g>
                    </g>
                </g>
            </g>
        </g>
    </g>
    <mask id="338f4fb3-26a0-4354-a78c-6c54dfcbea12">
        <g fill="white">
            <g>
                <rect
                    fill-opacity="1"
                    stroke-width="2"
                    x="0"
                    y="0"
                    width="82.5"
                    height="78.0082830613287"
                    class="image-rect"
                ></rect>
                <svg
                    x="0"
                    y="0"
                    width="82.5"
                    height="78.0082830613287"
                    class="image-svg-svg primary"
                    style="overflow: visible"
                    filter="url(#colorsf2579709706)"
                >
                    <svg
                        viewBox="-0.0000762939453125 -0.0000457763671875 266.780029296875 252.2550811767578"
                        xmlns="http://www.w3.org/2000/svg"
                    >
                        <title>1</title>
                        <g fill-rule="evenodd">
                            <path
                                d="M64.388 32.481c-114.196 7.43-65.53 304.966 110.662 195.684 80.292-49.799 103.052-97.049 86.816-132.75-19.653-43.213-96.431-69.508-197.478-62.934"
                                fill-opacity="1"
                            ></path>
                            <path
                                d="M237.484 203.508c-31.48 42.052-126.095 45.623-177.69 7.251-46.55-34.618-77.796-123.858-48.28-163.912C43.764 3.08 136.507 1.138 189.204 39.597c53.915 39.347 82.324 118.435 48.28 163.911"
                                fill-opacity="1"
                            ></path>
                            <path
                                d="M235.98 107.152C223.636 44.47 178.601-67.11 67.407 54.051c-111.195 121.163-54.569 167.91 44.974 170.433 99.543 2.524 135.94-54.649 123.597-117.332"
                                fill-opacity="1"
                            ></path>
                        </g>
                    </svg>
                </svg>
                <defs></defs>
            </g>
        </g>
        <g
            transform="translate(40.20500564575195,16.00039291381836)"
            fill="black"
            stroke="black"
            stroke-width="6"
            stroke-linejoin="round"
        >
            <g data-gra="path-name" fill-rule="" class="tp-name" transform="translate(0,0)">
                <g transform="scale(1)">
                    <g>
                        <path
                            d="M40.17-25.34L41.84-25.34 41.84-23.14Q41.84-22.88 41.65-22.68 41.45-22.48 41.18-22.48L41.18-22.48 40.17-22.48 40.17-21.21Q40.17-18.96 38.65-17.78 37.14-16.59 34.72-16.59L34.72-16.59 32.21-16.59 32.21-12.58 39.73-12.58 39.73-10.38Q39.73-10.12 39.53-9.92 39.34-9.72 39.07-9.72L39.07-9.72 32.21-9.72 32.21-6.51 40.96-6.51 40.96-4.31Q40.96-4.05 40.77-3.85 40.57-3.65 40.3-3.65L40.3-3.65 32.21-3.65 32.21-0.09Q32.21 0.18 32.01 0.37 31.81 0.57 31.55 0.57L31.55 0.57 27.37 0.57 27.37-3.65 20.42-3.65 20.42-6.51 27.37-6.51 27.37-9.68 21.6-9.68 21.6-12.54 27.37-12.54 27.37-16.59 21.91-16.59 21.91-19.45 27.37-19.45 27.37-22.48 21.03-22.48 21.03-25.34 27.37-25.34 27.37-28.56 21.91-28.56 21.91-31.42 27.37-31.42 27.37-35.42 32.21-35.42 32.21-31.42 40.17-31.42 40.17-25.34ZM11.62-34.76Q11.18-29.92 9.72-25.17L9.72-25.17 9.72 3.92Q9.72 4.18 9.53 4.38 9.33 4.58 9.06 4.58L9.06 4.58 4.88 4.58 4.88-15.93Q3.65-14.52 2.02-13.55L2.02-13.55 2.02-16.85Q3.39-18.57 4.73-23.83 6.07-29.08 6.78-34.76L6.78-34.76 11.62-34.76ZM17.12-3.43Q18.79-1.23 21.19-0.02 23.58 1.19 26.49 1.19L26.49 1.19 41.8 1.19 41.36 3.39Q41.18 4.05 40.7 4.05L40.7 4.05 26.71 4.05Q19.76 4.05 15.62-0.75L15.62-0.75Q13.86 1.8 10.43 4.22L10.43 4.22 10.43 1.36Q12.54-0.75 13.64-3.56L13.64-3.56Q11.35-7.74 10.69-13.82L10.69-13.82 13.73-13.68Q13.86-10.52 14.87-7.66L14.87-7.66Q15.62-11.35 15.93-16.85L15.93-16.85 11.53-16.85 11.53-19.71 12.89-19.71Q14.26-21.52 15.22-23.96 16.19-26.4 16.46-29.08L16.46-29.08 11.53-29.08 11.53-31.94 20.55-31.94 20.55-29.08Q20.28-26.88 18.88-24.29 17.47-21.69 15.71-19.71L15.71-19.71 20.33-19.71 20.33-16.85Q19.71-12.14 18.94-8.93 18.17-5.72 17.12-3.43L17.12-3.43ZM32.21-28.56L32.21-25.34 35.33-25.34 35.33-28.56 32.21-28.56ZM35.33-20.99L35.33-22.48 32.21-22.48 32.21-19.45 33.79-19.45Q35.33-19.45 35.33-20.99L35.33-20.99ZM78.36-11.35L71.32-11.35 71.32-10.87Q72.82-8.14 75.37-5.94L75.37-5.94Q77.79-7.74 79.6-10.78L79.6-10.78 84.88-10.78Q82.41-6.38 78.28-3.65L78.28-3.65Q80.08-2.38 81.82-1.41 83.56-0.44 85.98 0.75L85.98 0.75 85.98 3.61Q85.58 3.48 85.23 3.37 84.88 3.26 84.57 3.12L84.57 3.12Q80.17 1.58 77.04 0.09 73.92-1.41 71.32-3.92L71.32-3.92 71.32-1.01Q71.32 3.61 66.7 3.61L66.7 3.61 60.19 3.61 60.19 0.75 64.94 0.75Q66.48 0.75 66.48-0.79L66.48-0.79 66.48-3.74Q64.99-2.55 61.97-1.1 58.96 0.35 52.62 3.12L52.62 3.12 52.62-1.1Q53.06-1.32 55.79-2.46L55.79-2.46 59.31-3.96Q57.42-7.79 55.4-10.74L55.4-10.74 60.24-10.74Q61.47-8.18 62.35-5.37L62.35-5.37Q65.21-6.86 66.48-7.83L66.48-7.83 66.48-11.35 55.57-11.35 55.57-14.21 66.48-14.21 66.48-16.94 54.43-16.94Q54.21-10.56 53.24-6.4 52.27-2.24 50.51 0.24 48.75 2.73 46.02 4.05L46.02 4.05 46.02 0.75Q48.18-1.32 48.91-6.84 49.63-12.36 49.63-20.77L49.63-20.77 49.63-31.42 66.75-31.42Q65.25-33.26 63.32-35.42L63.32-35.42 68.6-35.42Q69.56-34.19 70.05-33.35 70.53-32.52 71.06-31.42L71.06-31.42 85.01-31.42 85.01-29.22Q85.01-28.95 84.81-28.75 84.61-28.56 84.35-28.56L84.35-28.56 54.47-28.56 54.47-20.68 54.47-19.8 66.48-19.8 66.48-22.4 56.14-22.4 56.14-25.26 66.48-25.26 66.48-27.72 71.32-27.72 71.32-25.26 82.98-25.26 82.98-19.8 85.98-19.8 85.98-17.6Q85.98-17.34 85.78-17.14 85.58-16.94 85.32-16.94L85.32-16.94 82.98-16.94 82.98-15.97Q82.98-11.35 78.36-11.35L78.36-11.35ZM71.32-22.4L71.32-19.8 78.14-19.8 78.14-22.4 71.32-22.4ZM71.32-16.94L71.32-14.21 76.6-14.21Q78.14-14.21 78.14-15.75L78.14-15.75 78.14-16.94 71.32-16.94ZM113.34-29.3L129.36-29.3 129.36-27.1Q129.36-26.84 129.16-26.64 128.96-26.44 128.7-26.44L128.7-26.44 105.34-26.44 105.34-18.57 123.86-18.57 123.86-16.37Q123.86-16.24 123.82-16.19L123.82-16.19 123.42-1.63Q123.42 2.99 118.8 2.99L118.8 2.99 108.02 2.99 108.02 0.13 117.04 0.13Q118.58 0.13 118.58-1.41L118.58-1.41 118.98-15.71 105.25-15.71Q104.68-8.67 101-3.59 97.33 1.5 90.82 4.31L90.82 4.31 90.82 1.01Q93.68-0.44 95.88-3.34 98.08-6.25 99.29-10.19 100.5-14.12 100.5-18.57L100.5-18.57 100.5-26.44 90.6-26.44 90.6-29.3 109.3-29.3Q107.32-32.82 104.68-35.33L104.68-35.33 110.4-35.33Q111.41-34.06 112-32.74 112.6-31.42 113.34-29.3L113.34-29.3ZM167.77-16.15L174.11-16.15 174.11-13.95Q174.11-13.68 173.91-13.49 173.71-13.29 173.45-13.29L173.45-13.29 167.77-13.29 167.77-1.06Q167.77 3.56 163.15 3.56L163.15 3.56 155.54 3.56 155.54 0.7 161.39 0.7Q162.93 0.7 162.93-0.84L162.93-0.84 162.93-13.29 145.6-13.29Q145.42-8.36 144.56-4.97 143.7-1.58 141.55 0.86 139.39 3.3 135.48 4.58L135.48 4.58 135.48 1.28Q138.47-0.31 139.55-3.85 140.62-7.39 140.76-13.29L140.76-13.29 134.02-13.29 134.02-16.15 140.8-16.15 140.8-18 140.8-30.58 150.39-30.58Q151.58-32.74 151.76-35.42L151.76-35.42 157.04-35.42Q156.11-32.78 154.48-30.58L154.48-30.58 167.77-30.58 167.77-16.15ZM145.64-16.15L162.93-16.15 162.93-27.72 145.64-27.72 145.64-17.56 145.64-16.15ZM153.91-26.27Q155.14-24.64 156.6-21.98 158.05-19.32 158.93-17.38L158.93-17.38 155.63-17.38Q155.23-18.13 152.92-21.1 150.61-24.07 148.63-26.27L148.63-26.27 153.91-26.27ZM158.93-2.51L155.63-2.51Q155.23-3.26 152.92-6.23 150.61-9.2 148.63-11.4L148.63-11.4 153.91-11.4Q155.14-9.77 156.6-7.11 158.05-4.44 158.93-2.51L158.93-2.51Z"
                            transform="translate(-2.0199999809265137, 35.41999816894531)"
                        ></path>
                    </g>
                </g>
            </g>
            <g data-gra="path-slogan" fill-rule="" class="tp-slogan" transform="translate(99.79499816894531,-18)">
                <g transform="scale(1, 1)">
                    <g transform="scale(1)">
                        <path
                            d="M6.66-5.89L6.66-5.89Q7.61-5.93 7.82-5.80L7.82-5.80Q7.82-5.71 7.73-5.54L7.73-5.54Q7.65-5.29 7.65-5.16L7.65-5.16L7.65-4.21L8.34-4.21Q9.75-4.21 10.23-4.30L10.23-4.30L10.23-3.31Q9.45-3.39 8.38-3.39L8.38-3.39L7.65-3.39L7.65 0.09Q7.52 0.77 5.80 0.90L5.80 0.90Q5.71 0.39 5.37-0.09L5.37-0.09Q6.66 0 6.70-0.26L6.70-0.26L6.70-3.39L2.71-3.39Q1.63-3.39 0.73-3.31L0.73-3.31L0.73-4.25Q1.20-4.21 2.66-4.21L2.66-4.21L6.70-4.21L6.70-5.29Q6.70-5.93 6.66-5.89ZM2.28-2.58L3.14-3.05Q4.08-1.93 4.47-1.25L4.47-1.25L3.52-0.82Q3.48-0.90 3.35-1.12L3.35-1.12Q2.79-2.15 2.28-2.58L2.28-2.58ZM4.73-8.55L5.80-8.64Q5.89-8.38 5.97-7.99L5.97-7.99Q6.23-7.18 6.27-7.26L6.27-7.26L8.38-7.26Q8.89-7.22 9.75-7.30L9.75-7.30Q9.71-7.18 9.71-6.57L9.71-6.57L9.71-6.40Q9.71-5.80 9.80-5.33L9.80-5.33L8.68-5.33Q8.77-5.76 8.77-6.14L8.77-6.14L8.77-6.45L2.06-6.45L2.06-6.19Q2.06-5.54 2.11-5.24L2.11-5.24L1.07-5.24Q1.16-5.63 1.16-6.23L1.16-6.23L1.16-6.49Q1.16-6.70 1.12-7.00L1.12-7.00Q1.12-7.22 1.12-7.30L1.12-7.30Q1.80-7.26 2.23-7.26L2.23-7.26L5.20-7.26Q4.98-7.91 4.73-8.55L4.73-8.55ZM17.62-8.68L18.56-8.94Q19.04-8.21 19.34-7.30L19.34-7.30L18.39-7.00Q18.22-7.69 17.62-8.68L17.62-8.68ZM13.28-8.85L13.28-8.85Q13.41-8.85 13.71-8.81L13.71-8.81Q14.44-8.81 14.39-8.72L14.39-8.72Q14.39-8.68 14.35-8.59L14.35-8.59Q14.22-8.34 14.22-7.86L14.22-7.86L14.22-6.45L14.57-6.45Q15.21-6.45 15.68-6.53L15.68-6.53Q15.73-6.53 15.73-6.53L15.73-6.53L15.73-5.50Q15.73-5.50 15.68-5.50L15.68-5.50Q15.30-5.59 14.57-5.59L14.57-5.59L14.22-5.59L14.22-4.04L15.64-4.55L15.73-3.65L14.22-3.18L14.22-0.09Q14.48 0.90 12.63 0.99L12.63 0.99Q12.59 0.34 12.20-0.04L12.20-0.04Q13.49 0.21 13.36-0.52L13.36-0.52L13.36-2.92L11.86-2.32L11.56-3.31L13.36-3.78L13.36-5.59L12.98-5.59Q12.38-5.59 11.77-5.46L11.77-5.46Q11.64-5.46 11.64-5.46L11.64-5.46L11.64-6.53Q11.64-6.53 11.77-6.53L11.77-6.53Q12.29-6.45 12.98-6.45L12.98-6.45L13.36-6.45L13.36-7.86Q13.36-8.34 13.28-8.72L13.28-8.72Q13.28-8.81 13.28-8.85ZM20.07-6.14L17.10-6.14L17.10-4.13L20.07-4.13L20.07-6.14ZM17.49-6.96L19.72-6.96Q20.32-6.96 20.97-7.00L20.97-7.00Q21.05-7.00 21.05-7.00L21.05-7.00Q21.05-6.92 21.05-6.70L21.05-6.70Q21.01-6.14 21.01-5.71L21.01-5.71L21.01-4.13Q21.01-3.31 21.10-2.71L21.10-2.71Q21.10-2.58 21.10-2.54L21.10-2.54L19.98-2.54Q20.07-2.66 20.07-3.35L20.07-3.35L17.14-3.35Q17.14-0.43 15.64 1.07L15.64 1.07Q15.13 0.77 14.52 0.64L14.52 0.64Q15.81-0.30 16.07-1.68L16.07-1.68Q16.41-3.01 16.24-7.05L16.24-7.05Q16.63-6.96 17.49-6.96L17.49-6.96ZM27.76-8.89L27.76-8.89Q28.66-8.55 28.75-8.38L28.75-8.38Q28.75-8.38 28.70-8.34L28.70-8.34Q28.40-8.21 27.84-7.48L27.84-7.48L30.21-7.48Q31.75-7.48 32.23-7.56L32.23-7.56Q31.80-6.49 31.37-5.59L31.37-5.59Q31.07-5.71 30.38-5.80L30.38-5.80Q30.77-6.27 30.98-6.66L30.98-6.66L27.33-6.66Q26.86-6.14 26.60-5.89L26.60-5.89Q26.38-5.67 26.17-5.41L26.17-5.41Q25.87-5.76 25.31-5.97L25.31-5.97Q26.81-6.83 27.76-8.89ZM24.62-8.81L24.62-8.81Q25.82-8.34 25.74-8.21L25.74-8.21Q25.74-8.21 25.70-8.21L25.70-8.21Q25.44-8.08 24.88-7.26L24.88-7.26L24.88-4.04Q24.88-2.96 24.96-2.54L24.96-2.54L23.89-2.54Q23.98-3.05 24.02-4.00L24.02-4.00L24.02-6.10Q23.50-5.33 23.07-4.77L23.07-4.77Q22.86-5.20 22.39-5.59L22.39-5.59Q23.93-6.75 24.62-8.81ZM28.40-6.45L28.40-6.45Q29.35-6.40 29.56-6.32L29.56-6.32Q29.56-6.32 29.52-6.27L29.52-6.27Q29.30-5.89 29.30-5.46L29.30-5.46L29.30-3.65Q29.56-2.54 27.71-2.49L27.71-2.49Q27.71-3.05 27.37-3.52L27.37-3.52Q28.57-3.18 28.45-3.95L28.45-3.95L28.45-5.76Q28.45-5.93 28.40-6.45ZM26.90-5.41L26.90-5.41Q27.59-5.16 27.84-4.94L27.84-4.94Q27.84-4.90 27.76-4.90L27.76-4.90Q27.50-4.77 27.24-4.38L27.24-4.38Q27.16-4.25 26.81-3.78L26.81-3.78Q26.47-3.31 26.34-3.14L26.34-3.14Q25.95-3.39 25.39-3.52L25.39-3.52Q26.43-4.25 26.90-5.41ZM29.78-4.86L30.42-5.33Q31.11-4.86 32.14-3.82L32.14-3.82L31.37-3.14Q30.72-4.08 29.78-4.86L29.78-4.86ZM27.03-2.02L27.84-2.32Q28.36-1.72 28.70-0.90L28.70-0.90L27.80-0.56Q27.50-1.46 27.03-2.02L27.03-2.02ZM29.78-1.89L30.59-2.32Q31.45-1.46 32.44-0.17L32.44-0.17L31.45 0.34Q31.02-0.60 29.78-1.89L29.78-1.89ZM25.44-1.07L25.39-2.06Q26.34-2.02 26.55-1.89L26.55-1.89Q26.55-1.85 26.51-1.80L26.51-1.80Q26.34-1.50 26.34-1.12L26.34-1.12L26.34-0.30Q26.21 0.21 27.16 0.13L27.16 0.13L28.14 0.13Q29.56 0.34 29.52-0.99L29.52-0.99Q29.91-0.47 30.51-0.26L30.51-0.26Q30.08 1.12 28.62 0.90L28.62 0.90L26.86 0.90Q25.18 1.03 25.44 0L25.44 0L25.44-1.07ZM23.72-1.98L23.72-1.98Q24.84-1.80 24.79-1.68L24.79-1.68Q24.79-1.68 24.75-1.68L24.75-1.68Q24.62-1.63 24.49-1.20L24.49-1.20Q24.45-1.12 24.41-0.90L24.41-0.90Q23.98 0.21 23.76 0.60L23.76 0.60Q23.29 0.30 22.73 0.21L22.73 0.21Q23.55-0.60 23.72-1.98ZM39.79-8.94L39.79-8.94Q40.95-8.59 40.95-8.46L40.95-8.46Q40.95-8.42 40.86-8.38L40.86-8.38Q40.69-8.29 40.65-8.12L40.65-8.12Q40.26-7.48 40.05-6.79L40.05-6.79L41.64-6.79Q42.58-6.79 43.10-6.83L43.10-6.83Q42.75-1.20 42.67-0.21L42.67-0.21Q42.54 0.99 40.30 1.07L40.30 1.07Q40.18 0.43 39.79-0.04L39.79-0.04Q40.95 0.17 41.55-0.09L41.55-0.09Q41.85-0.04 41.98-3.91L41.98-3.91Q42.07-5.29 42.11-6.10L42.11-6.10L39.75-6.10Q39.32-5.29 38.71-4.21L38.71-4.21Q38.33-4.47 37.94-4.55L37.94-4.55L37.94-0.69Q37.94 0.39 37.98 0.69L37.98 0.69L37.00 0.69Q37.04 0.30 37.04-0.34L37.04-0.34L34.93-0.34Q34.93 0.30 34.98 0.77L34.98 0.77L33.99 0.77Q34.03 0.39 34.03-0.64L34.03-0.64L34.03-5.24Q34.03-5.41 33.99-6.06L33.99-6.06Q33.99-6.62 33.99-6.75L33.99-6.75Q34.63-6.70 34.93-6.70L34.93-6.70L35.23-6.70Q35.36-7.39 35.45-8.81L35.45-8.81Q36.65-8.68 36.57-8.51L36.57-8.51Q36.57-8.42 36.48-8.34L36.48-8.34Q36.39-8.25 36.35-8.12L36.35-8.12Q36.22-7.82 36.09-7.26L36.09-7.26Q36.01-6.92 35.96-6.70L35.96-6.70L36.70-6.70Q37.04-6.70 37.98-6.75L37.98-6.75Q37.94-6.45 37.94-5.37L37.94-5.37L37.94-4.77Q39.27-6.27 39.79-8.94ZM37.04-6.02L34.93-6.02L34.93-3.78L37.04-3.78L37.04-6.02ZM39.06-3.82L39.79-4.25Q40.05-3.91 40.69-2.66L40.69-2.66Q40.86-2.41 40.91-2.28L40.91-2.28L40.09-1.85Q39.96-2.36 39.06-3.82L39.06-3.82ZM37.04-3.14L34.93-3.14L34.93-1.03L37.04-1.03L37.04-3.14ZM46.15-8.89L46.15-8.89Q46.28-8.85 46.49-8.81L46.49-8.81Q47.31-8.55 47.22-8.46L47.22-8.46Q47.18-8.34 47.09-8.21L47.09-8.21Q46.96-8.04 46.92-7.91L46.92-7.91Q46.54-7.05 46.45-6.53L46.45-6.53L46.45 0.17Q47.09-0.21 47.65-1.03L47.65-1.03Q47.14-1.85 46.79-3.22L46.79-3.22L47.61-3.39Q47.78-2.49 48.13-1.72L48.13-1.72Q48.47-2.75 48.55-3.95L48.55-3.95Q48.21-3.95 47.39-3.82L47.39-3.82Q47.35-3.82 47.31-3.82L47.31-3.82L47.09-4.60Q47.44-4.68 47.61-5.16L47.61-5.16Q47.70-5.33 47.87-5.93L47.87-5.93Q48.08-6.53 48.21-6.92L48.21-6.92Q47.78-6.92 47.22-6.88L47.22-6.88L47.22-7.69Q47.95-7.65 48.21-7.65L48.21-7.65Q48.98-7.65 49.20-7.69L49.20-7.69Q49.29-7.65 49.24-7.61L49.24-7.61Q49.07-7.09 48.73-6.10L48.73-6.10Q48.43-5.20 48.25-4.73L48.25-4.73L49.20-4.81Q49.07-2.49 48.60-1.07L48.60-1.07Q48.98-0.60 49.84-0.39L49.84-0.39Q50.40-0.26 50.83-0.21L50.83-0.21Q51.00-0.21 51.05-0.17L51.05-0.17L51.05-1.20L50.70-1.20Q49.71-1.20 49.33-1.16L49.33-1.16L49.33-1.89Q49.76-1.85 50.70-1.85L50.70-1.85L51.05-1.85L51.05-2.62Q50.96-2.62 50.75-2.62L50.75-2.62Q50.02-2.66 49.59-2.58L49.59-2.58L49.59-3.35Q50.02-3.31 51.05-3.31L51.05-3.31L51.05-4.04Q49.97-4.04 49.59-4.00L49.59-4.00L49.59-4.81Q50.02-4.77 51.05-4.77L51.05-4.77L51.05-5.54L50.49-5.54Q49.67-5.54 49.29-5.50L49.29-5.50L49.29-6.23Q49.50-6.23 49.89-6.19L49.89-6.19Q50.23-6.19 50.36-6.19L50.36-6.19L51.05-6.19L51.05-7.00Q50.88-7.00 50.32-6.96L50.32-6.96Q49.80-6.96 49.67-6.96L49.67-6.96L49.67-7.69Q50.40-7.65 50.57-7.65L50.57-7.65L51.05-7.65Q51.05-8.38 50.96-8.77L50.96-8.77Q51.95-8.77 51.95-8.64L51.95-8.64Q51.95-8.59 51.91-8.51L51.91-8.51Q51.82-8.34 51.78-8.16L51.78-8.16Q51.78-7.91 51.78-7.65L51.78-7.65L52.42-7.65Q52.55-7.65 53.07-7.69L53.07-7.69Q53.54-7.69 53.67-7.69L53.67-7.69Q53.67-7.43 53.63-6.75L53.63-6.75L53.63-6.23Q54.23-6.23 54.53-6.27L54.53-6.27L54.53-5.46Q54.23-5.50 53.67-5.50L53.67-5.50L53.67-5.03Q53.67-4.25 53.71-4.00L53.71-4.00Q53.45-4.04 52.29-4.08L52.29-4.08L51.73-4.08L51.73-3.31L52.38-3.31Q53.54-3.35 53.88-3.39L53.88-3.39L53.88-2.62Q53.71-2.62 53.15-2.66L53.15-2.66Q52.59-2.66 52.38-2.66L52.38-2.66L51.73-2.66L51.73-1.89L52.64-1.89Q53.63-1.89 53.97-1.93L53.97-1.93L53.97-1.16Q53.80-1.16 53.20-1.20L53.20-1.20Q52.72-1.20 52.64-1.20L52.64-1.20L51.73-1.20L51.73-0.17Q52.16-0.13 53.41-0.26L53.41-0.26Q53.71-0.26 54.44-0.39L54.44-0.39Q54.23 0 53.97 0.47L53.97 0.47Q53.93 0.60 53.88 0.64L53.88 0.64Q52.21 0.64 51.61 0.56L51.61 0.56Q48.64 0.39 48.25-0.47L48.25-0.47Q47.87 0.04 47.27 0.69L47.27 0.69L46.45 0.26Q46.45 0.60 46.45 1.07L46.45 1.07L45.63 1.07Q45.68 0.64 45.68-0.90L45.68-0.90L45.68-4.86Q45.29-4.13 44.86-3.35L44.86-3.35Q44.64-3.95 44.30-4.25L44.30-4.25Q45.63-6.40 46.15-8.89ZM52.81-6.19L52.81-7.00L51.73-7.00L51.73-6.19L52.81-6.19ZM52.81-5.54L51.73-5.54L51.73-4.73L52.81-4.73L52.81-5.54ZM59.86-8.64L60.84-8.85Q61.19-8.08 61.27-7.69L61.27-7.69L63.46-7.69Q63.81-7.69 64.45-7.73L64.45-7.73Q64.88-7.73 65.01-7.73L65.01-7.73L65.01-6.92Q64.80-6.96 63.46-6.96L63.46-6.96L61.23-6.96L61.23-6.19L62.13-6.19Q63.25-6.19 64.02-6.27L64.02-6.27Q63.98-5.97 63.94-5.16L63.94-5.16L63.94-4.90Q64.88-4.90 65.14-4.94L65.14-4.94L65.14-4.21Q64.71-4.25 63.94-4.25L63.94-4.25L63.94-3.82Q63.94-3.27 64.02-2.84L64.02-2.84Q64.02-2.79 64.02-2.79L64.02-2.79Q63.81-2.84 62.56-2.84L62.56-2.84L61.66-2.84Q61.88-2.32 62.39-1.63L62.39-1.63Q63.08-2.23 63.51-2.66L63.51-2.66Q64.15-2.28 64.15-2.11L64.15-2.11Q64.11-2.02 63.98-1.98L63.98-1.98Q63.81-1.93 63.72-1.85L63.72-1.85Q63.64-1.80 63.29-1.55L63.29-1.55Q62.99-1.33 62.82-1.20L62.82-1.20Q63.77-0.47 65.23-0.30L65.23-0.30Q64.58 0.13 64.32 0.56L64.32 0.56Q63.12 0.04 62.26-0.77L62.26-0.77Q61.66-1.42 61.23-2.28L61.23-2.28L61.23 0Q61.49 0.99 59.60 1.03L59.60 1.03Q59.51 0.43 59.25 0.04L59.25 0.04Q60.54 0.30 60.41-0.26L60.41-0.26L60.41-1.25Q59.13-0.34 57.79 0.21L57.79 0.21L57.32-0.43Q58.65-0.90 60.37-2.06L60.37-2.06L60.37-2.84L59.17-2.84Q58.22-2.79 57.96-2.79L57.96-2.79L57.96-3.52Q58.35-3.48 59.17-3.48L59.17-3.48L60.37-3.48L60.37-4.21L57.49-4.21Q57.45-2.84 57.23-1.85L57.23-1.85Q56.98-0.64 56.25 0.52L56.25 0.52Q56.20 0.47 56.07 0.43L56.07 0.43Q55.77 0.26 55.26 0.17L55.26 0.17Q56.55-1.38 56.63-3.31L56.63-3.31L56.68-4.94L56.68-6.36Q56.68-6.70 56.63-7.26L56.63-7.26Q56.63-7.61 56.63-7.73L56.63-7.73Q56.85-7.73 57.23-7.73L57.23-7.73Q57.75-7.69 58.09-7.69L58.09-7.69L60.37-7.69Q60.11-8.29 59.86-8.64L59.86-8.64ZM60.37-6.19L60.37-6.96L57.49-6.96L57.49-4.86L60.37-4.86L60.37-5.54L59.13-5.54Q58.18-5.54 57.92-5.50L57.92-5.50L57.92-6.23Q58.22-6.23 59.08-6.19L59.08-6.19L60.37-6.19ZM63.16-4.86L63.16-5.54L61.23-5.54L61.23-4.86L63.16-4.86ZM63.16-3.48L63.16-4.21L61.23-4.21L61.23-3.48L63.16-3.48ZM57.92-2.06L58.48-2.58L59.51-1.76L58.87-1.20Q58.27-1.89 57.92-2.06L57.92-2.06Z"
                            transform="translate(-0.73046875, 8.9375)"
                        ></path>
                    </g>
                </g>
            </g>
        </g>
    </mask>
    <defs v-gra="od">
        <linearGradient x1="0" y1="1" x2="0" y2="0" id="5e623038-202d-424f-8610-681b1ce6ecc8">
            <stop offset="0%" stop-color="#6e45e2"></stop>
            <stop offset="100%" stop-color="#88d3ce"></stop>
        </linearGradient>
        <filter id="42443b3f1de60f6b6fd3b6a9844b4764" filterUnits="objectBoundingBox">
            <feColorMatrix
                type="matrix"
                values="0 0 0 0 0.99609375  0 0 0 0 0.99609375  0 0 0 0 0.99609375  0 0 0 1 0"
            ></feColorMatrix>
        </filter>
    </defs>
    <defs v-gra="id">
        <filter id="9945299e-b9c8-4b1d-bf3f-95c39b934e06" filterUnits="userSpaceOnUse">
            <feColorMatrix
                type="matrix"
                values="0 0 0 0 0.99609375  0 0 0 0 0.99609375  0 0 0 0 0.99609375  0 0 0 1 0"
            ></feColorMatrix>
        </filter>
        <linearGradient x1="0" y1="1" x2="0" y2="0" id="Iw-3B9WgSuJpK0WbnQPDc">
            <stop offset="0%" stop-color="#6e45e2"></stop>
            <stop offset="100%" stop-color="#88d3ce"></stop>
        </linearGradient>
        <filter id="42443b3f1de60f6b6fd3b6a9844b4764" filterUnits="objectBoundingBox">
            <feColorMatrix
                type="matrix"
                values="0 0 0 0 0.99609375  0 0 0 0 0.99609375  0 0 0 0 0.99609375  0 0 0 1 0"
            ></feColorMatrix>
        </filter>
    </defs>
    <mask v-gra="im" id="81a8e1cb-314c-4e37-9e42-bf7e70b44451">
        <g mask="url(#338f4fb3-26a0-4354-a78c-6c54dfcbea12)" filter="url(#9945299e-b9c8-4b1d-bf3f-95c39b934e06)">
            <g>
                <rect
                    fill="#1c085d"
                    fill-opacity="0"
                    stroke-width="2"
                    x="0"
                    y="0"
                    width="82.5"
                    height="78.0082830613287"
                    class="image-rect"
                ></rect>
                <svg
                    x="0"
                    y="0"
                    width="82.5"
                    height="78.0082830613287"
                    filtersec="colorsf2579709706"
                    class="image-svg-svg primary"
                    style="overflow: visible"
                >
                    <svg
                        viewBox="-0.0000762939453125 -0.0000457763671875 266.780029296875 252.2550811767578"
                        xmlns="http://www.w3.org/2000/svg"
                    >
                        <title>1</title>
                        <g fill="#F06F1D" fill-rule="evenodd">
                            <path
                                d="M64.388 32.481c-114.196 7.43-65.53 304.966 110.662 195.684 80.292-49.799 103.052-97.049 86.816-132.75-19.653-43.213-96.431-69.508-197.478-62.934"
                                fill-opacity=".6"
                            ></path>
                            <path
                                d="M237.484 203.508c-31.48 42.052-126.095 45.623-177.69 7.251-46.55-34.618-77.796-123.858-48.28-163.912C43.764 3.08 136.507 1.138 189.204 39.597c53.915 39.347 82.324 118.435 48.28 163.911"
                                fill-opacity=".7"
                            ></path>
                            <path
                                d="M235.98 107.152C223.636 44.47 178.601-67.11 67.407 54.051c-111.195 121.163-54.569 167.91 44.974 170.433 99.543 2.524 135.94-54.649 123.597-117.332"
                                fill-opacity=".7"
                            ></path>
                        </g>
                    </svg>
                </svg>
                <defs>
                    <filter id="colors810980553">
                        <feColorMatrix
                            type="matrix"
                            values="0 0 0 0 0.2109375  0 0 0 0 0.19921875  0 0 0 0 0.51171875  0 0 0 1 0"
                            class="icon-fecolormatrix"
                        ></feColorMatrix>
                    </filter>
                    <filter id="colorsf2579709706">
                        <feColorMatrix
                            type="matrix"
                            values="0 0 0 0 0.99609375  0 0 0 0 0.99609375  0 0 0 0 0.99609375  0 0 0 1 0"
                            class="icon-fecolormatrix"
                        ></feColorMatrix>
                    </filter>
                    <filter id="colorsb6447511854">
                        <feColorMatrix
                            type="matrix"
                            values="0 0 0 0 0  0 0 0 0 0  0 0 0 0 0  0 0 0 1 0"
                            class="icon-fecolormatrix"
                        ></feColorMatrix>
                    </filter>
                </defs>
            </g>
        </g>
    </mask>
</svg>
