<?xml version="1.0" encoding="utf-8"?>
<svg version="1.1" xmlns:xlink="http://www.w3.org/1999/xlink" width="17px" height="27px" xmlns="http://www.w3.org/2000/svg">
  <g transform="matrix(1 0 0 1 -169 -292 )">
    <path d="M 16.707903780068726 12.877755511022045  C 16.902634593356247 13.05811623246493  17 13.265531062124246  17 13.5  C 17 13.73446893787575  16.902634593356247 13.941883767535067  16.707903780068726 14.122244488977955  L 3.0962199312714773 26.72945891783567  C 2.9014891179839633 26.90981963927856  2.6775486827033217 27  2.424398625429553 27  C 2.171248568155785 27  1.9473081328751434 26.90981963927856  1.7525773195876289 26.72945891783567  L 0.2920962199312715 25.37675350701403  C 0.09736540664375723 25.19639278557114  0 24.988977955911825  0 24.75450901803607  C 0 24.520040080160317  0.09736540664375723 24.312625250501004  0.2920962199312715 24.132264529058116  L 11.77147766323024 13.5  L 0.2920962199312715 2.8677354709418834  C 0.09736540664375723 2.687374749498997  0 2.4799599198396782  0 2.2454909819639286  C 0 2.0110220440881728  0.09736540664375723 1.8036072144288546  0.2920962199312715 1.6232464929859707  L 1.7525773195876289 0.2705410821643289  C 1.9473081328751434 0.09018036072144198  2.171248568155785 0  2.424398625429553 0  C 2.6775486827033217 0  2.9014891179839633 0.09018036072144198  3.0962199312714773 0.2705410821643289  L 16.707903780068726 12.877755511022045  Z " fill-rule="nonzero" fill="#555555" stroke="none" transform="matrix(1 0 0 1 169 292 )" />
  </g>
</svg>