<?xml version="1.0" encoding="utf-8"?>
<svg version="1.1" xmlns:xlink="http://www.w3.org/1999/xlink" width="31px" height="31px" xmlns="http://www.w3.org/2000/svg">
  <g transform="matrix(1 0 0 1 -21 -180 )">
    <path d="M 36.5 180  C 45.18 180  52 186.82  52 195.5  C 52 204.18  45.18 211  36.5 211  C 27.82 211  21 204.18  21 195.5  C 21 186.82  27.82 180  36.5 180  Z " fill-rule="nonzero" fill="#ffffff" stroke="none" />
    <path d="M 36.5 180.5  C 44.900000000000006 180.5  51.5 187.1  51.5 195.5  C 51.5 203.9  44.900000000000006 210.5  36.5 210.5  C 28.1 210.5  21.5 203.9  21.5 195.5  C 21.5 187.1  28.1 180.5  36.5 180.5  Z " stroke-width="1" stroke="#797979" fill="none" />
  </g>
</svg>