<?xml version="1.0" encoding="utf-8"?>
<svg version="1.1" xmlns:xlink="http://www.w3.org/1999/xlink" width="15px" height="15px" xmlns="http://www.w3.org/2000/svg">
  <g transform="matrix(1 0 0 1 -31 -269 )">
    <path d="M 38.5 269  C 42.7 269  46 272.3  46 276.5  C 46 280.7  42.7 284  38.5 284  C 34.3 284  31 280.7  31 276.5  C 31 272.3  34.3 269  38.5 269  Z " fill-rule="nonzero" fill="#ffffff" stroke="none" />
    <path d="M 38.5 269.5  C 42.42 269.5  45.5 272.58  45.5 276.5  C 45.5 280.42  42.42 283.5  38.5 283.5  C 34.58 283.5  31.5 280.42  31.5 276.5  C 31.5 272.58  34.58 269.5  38.5 269.5  Z " stroke-width="1" stroke="#797979" fill="none" />
  </g>
</svg>