<?xml version="1.0" encoding="utf-8"?>
<svg version="1.1" xmlns:xlink="http://www.w3.org/1999/xlink" width="58px" height="58px" xmlns="http://www.w3.org/2000/svg">
  <g transform="matrix(1 0 0 1 -55 -557 )">
    <path d="M 84 557  C 100.24000000000001 557  113 569.76  113 586  C 113 602.24  100.24000000000001 615  84 615  C 67.75999999999999 615  55 602.24  55 586  C 55 569.76  67.75999999999999 557  84 557  Z " fill-rule="nonzero" fill="#ffffff" stroke="none" />
    <path d="M 84 557.5  C 99.96000000000001 557.5  112.5 570.04  112.5 586  C 112.5 601.96  99.96000000000001 614.5  84 614.5  C 68.03999999999999 614.5  55.5 601.96  55.5 586  C 55.5 570.04  68.03999999999999 557.5  84 557.5  Z " stroke-width="1" stroke="#797979" fill="none" />
  </g>
</svg>