<?xml version="1.0" encoding="utf-8"?>
<svg version="1.1" xmlns:xlink="http://www.w3.org/1999/xlink" width="14px" height="24px" xmlns="http://www.w3.org/2000/svg">
  <g transform="matrix(1 0 0 1 -353 -291 )">
    <path d="M 13.759450171821305 11.446893787575151  C 13.919816723940437 11.607214428857715  14 11.791583166332664  14 12  C 14 12.208416833667332  13.919816723940437 12.392785571142284  13.759450171821305 12.553106212424849  L 2.549828178694158 23.759519038076153  C 2.3894616265750286 23.919839679358716  2.20504009163803 24  1.9965635738831615 24  C 1.7880870561282936 24  1.6036655211912945 23.919839679358716  1.443298969072165 23.759519038076153  L 0.2405498281786942 22.557114228456914  C 0.08018327605956477 22.396793587174347  0 22.2124248496994  0 22.004008016032063  C 0 21.795591182364728  0.08018327605956477 21.61122244488978  0.2405498281786942 21.450901803607216  L 9.694158075601374 12  L 0.2405498281786942 2.5490981963927855  C 0.08018327605956477 2.3887775551102193  0 2.2044088176352696  0 1.9959919839679365  C 0 1.787575150300598  0.08018327605956477 1.6032064128256485  0.2405498281786942 1.442885771543085  L 1.443298969072165 0.24048096192384794  C 1.6036655211912945 0.08016032064128176  1.7880870561282936 0  1.9965635738831615 0  C 2.20504009163803 0  2.3894616265750286 0.08016032064128176  2.549828178694158 0.24048096192384794  L 13.759450171821305 11.446893787575151  Z " fill-rule="nonzero" fill="#555555" stroke="none" transform="matrix(1 0 0 1 353 291 )" />
  </g>
</svg>