<?xml version="1.0" encoding="utf-8"?>
<svg version="1.1" xmlns:xlink="http://www.w3.org/1999/xlink" width="23px" height="23px" xmlns="http://www.w3.org/2000/svg">
  <g transform="matrix(1 0 0 1 -337 -181 )">
    <path d="M 15.587890625 4.447265625  C 14.34006076388889 3.7185329861111107  12.977430555555557 3.3541666666666674  11.5 3.3541666666666674  C 10.022569444444445 3.3541666666666674  8.659939236111112 3.7185329861111107  7.412109375 4.447265625  C 6.164279513888889 5.175998263888887  5.175998263888889 6.164279513888887  4.447265625 7.412109375  C 3.7185329861111116 8.65993923611111  3.354166666666667 10.022569444444443  3.354166666666667 11.5  C 3.354166666666667 12.977430555555557  3.7185329861111116 14.340060763888886  4.447265625 15.587890625  C 5.175998263888889 16.835720486111107  6.164279513888889 17.82400173611111  7.412109375 18.552734375  C 8.659939236111112 19.28146701388889  10.022569444444445 19.645833333333332  11.5 19.645833333333332  C 12.977430555555557 19.645833333333332  14.34006076388889 19.28146701388889  15.587890625 18.552734375  C 16.835720486111114 17.82400173611111  17.824001736111114 16.835720486111107  18.552734375 15.587890625  C 19.28146701388889 14.340060763888886  19.645833333333332 12.977430555555557  19.645833333333332 11.5  C 19.645833333333332 10.022569444444443  19.28146701388889 8.65993923611111  18.552734375 7.412109375  C 17.824001736111114 6.164279513888887  16.835720486111114 5.175998263888887  15.587890625 4.447265625  Z M 21.457682291666668 5.7275390625  C 22.485894097222218 7.489474826388887  23 9.41362847222222  23 11.5  C 23 13.586371527777779  22.485894097222218 15.510525173611109  21.457682291666668 17.2724609375  C 20.429470486111114 19.03439670138889  19.03439670138889 20.42947048611111  17.2724609375 21.457682291666668  C 15.510525173611114 22.485894097222225  13.586371527777779 23  11.5 23  C 9.413628472222223 23  7.489474826388889 22.485894097222225  5.7275390625 21.457682291666668  C 3.9656032986111116 20.42947048611111  2.5705295138888893 19.03439670138889  1.5423177083333335 17.2724609375  C 0.5141059027777777 15.510525173611109  0 13.586371527777779  0 11.5  C 0 9.41362847222222  0.5141059027777777 7.489474826388887  1.5423177083333335 5.7275390625  C 2.5705295138888893 3.9656032986111107  3.9656032986111116 2.5705295138888866  5.7275390625 1.5423177083333326  C 7.489474826388889 0.5141059027777758  9.413628472222223 0  11.5 0  C 13.586371527777779 0  15.510525173611114 0.5141059027777758  17.2724609375 1.5423177083333326  C 19.03439670138889 2.5705295138888866  20.429470486111114 3.9656032986111107  21.457682291666668 5.7275390625  Z " fill-rule="nonzero" fill="#000000" stroke="none" transform="matrix(1 0 0 1 337 181 )" />
  </g>
</svg>