<?xml version="1.0" standalone="no"?><!DOCTYPE svg PUBLIC "-//W3C//DTD SVG 1.1//EN" "http://www.w3.org/Graphics/SVG/1.1/DTD/svg11.dtd"><svg class="icon" width="200px" height="200.00px" viewBox="0 0 1024 1024" version="1.1" xmlns="http://www.w3.org/2000/svg"><path d="M376.694891 957.414141c-82.618182 0-160.323232-32.193939-218.763636-90.634343C99.490851 808.339394 67.296912 730.634343 67.296912 647.886869c0-69.688889 48.872727-187.345455 145.454545-349.608081 70.593939-118.820202 142.222222-219.79798 142.99798-220.70303 4.913131-6.852525 12.670707-10.860606 21.074747-10.860606s16.161616 4.008081 21.074748 10.860606c0.775758 1.034343 72.274747 101.882828 142.99798 220.70303 96.452525 162.391919 145.454545 280.048485 145.454545 349.608081 0 82.618182-32.193939 160.323232-90.634343 218.763636-58.69899 58.569697-136.40404 90.763636-219.022223 90.763636z m0-819.587878C288.904992 265.567677 119.014083 536.177778 119.014083 647.886869 119.014083 789.979798 234.601962 905.69697 376.694891 905.69697S634.375699 789.979798 634.375699 647.886869c0-41.373737-23.919192-131.10303-138.214141-323.232324-46.416162-78.222222-93.349495-148.557576-119.466667-186.828282z"  /><path d="M718.933275 846.610101c-14.222222 0-25.858586-11.636364-25.858586-25.858586s11.636364-25.858586 25.858586-25.858586c102.658586 0 186.181818-83.523232 186.181818-186.181818 0-79.90303-119.725253-272.420202-186.311111-370.165656-13.317172 19.652525-33.486869 50.036364-61.284848 93.995959-7.628283 12.024242-23.660606 15.644444-35.684849 8.016162-12.024242-7.628283-15.644444-23.660606-8.016161-35.684849 58.440404-92.315152 83.264646-125.672727 84.29899-127.094949 4.913131-6.464646 12.541414-10.343434 20.686868-10.343435h0.387879c8.274747 0.129293 15.90303 4.137374 20.686869 10.860606 0.517172 0.775758 54.30303 76.412121 107.183838 165.49495 72.791919 122.440404 109.640404 211.523232 109.640404 264.791919 0.129293 131.361616-106.666667 238.028283-237.769697 238.028283z"  /></svg>