<?xml version="1.0" standalone="no"?><!DOCTYPE svg PUBLIC "-//W3C//DTD SVG 1.1//EN" "http://www.w3.org/Graphics/SVG/1.1/DTD/svg11.dtd"><svg class="icon" width="200px" height="200.00px" viewBox="0 0 1024 1024" version="1.1" xmlns="http://www.w3.org/2000/svg"><path d="M780.650667 502.869333l-146.538667 0c-8.085333 0-15.466667 4.565333-19.093333 11.797333l-46.741333 93.504-59.946667-259.712c-2.090667-8.981333-9.706667-15.616-18.901333-16.448-9.109333-0.618667-17.856 4.352-21.504 12.842667l-67.733333 158.016-156.885333 0c-11.776 0-21.333333 9.557333-21.333333 21.333333 0 11.797333 9.557333 21.333333 21.333333 21.333333l170.965333 0c8.533333 0 16.256-5.077333 19.605333-12.928l47.552-110.933333 58.581333 253.866667c2.026667 8.768 9.344 15.338667 18.261333 16.405333 0.853333 0.106667 1.685333 0.149333 2.517333 0.149333 8 0 15.445333-4.501333 19.093333-11.797333l67.392-134.741333 133.354667 0c11.797333 0 21.333333-9.536 21.333333-21.333333C801.984 512.448 792.448 502.869333 780.650667 502.869333zM707.242667 50.986667c-77.013333 0-146.24 48.448-195.242667 90.474667-49.002667-42.026667-118.229333-90.474667-195.221333-90.474667-173.461333 0-314.602667 141.098667-314.602667 314.56 0 397.376 481.322667 597.610667 501.802667 605.930667l3.498667 1.408 3.797333 0.128c0 0 0.021333 0 0.042667 0 9.877333 0 182.570667-75.221333 320.746667-208.661333 125.909333-121.621333 189.781333-255.786667 189.781333-398.805333C1021.824 192.085333 880.704 50.986667 707.242667 50.986667zM746.346667 783.296c-102.378667 83.392-205.802667 132.416-234.474667 145.216C447.018667 900.394667 44.842667 712.128 44.842667 365.546667c0-149.909333 121.984-271.893333 271.936-271.893333 70.165333 0 136.896 52.544 180.992 92.074667L512 198.506667l14.250667-12.778667c44.074667-39.552 110.805333-92.074667 180.992-92.074667 149.930667 0 271.914667 121.984 271.914667 271.893333C979.157333 516.885333 900.842667 657.429333 746.346667 783.296z" /></svg>