<?xml version="1.0" standalone="no"?><!DOCTYPE svg PUBLIC "-//W3C//DTD SVG 1.1//EN" "http://www.w3.org/Graphics/SVG/1.1/DTD/svg11.dtd"><svg class="icon" width="200px" height="200.00px" viewBox="0 0 1024 1024" version="1.1" xmlns="http://www.w3.org/2000/svg"><path d="M217.51 383.59h24.64v5.12h-24.64z" fill="#999999" /><path d="M228.27 254.74v-64.36c0-11.32 7.88-22.01 17.59-23.86l505.17-96.38c9.71-1.85 17.59 5.82 17.59 17.15v82.58" fill="#B7B3FF" /><path d="M227.85 264.53l-0.99-76.34c0-12.3 11.1-22.33 23.56-22.33H843.4c12.46 0 22.56 9.97 22.56 22.27v747.76c0 12.3-10.1 22.27-22.56 22.27H250.42c-12.46 0-22.56-9.97-22.56-22.27V826.06" fill="#F5F5FF" /><path d="M246.29 321.36h-36.05c-17.62 0-31.91-14.29-31.91-31.91s14.29-31.91 31.91-31.91h36.05c17.62 0 31.91 14.29 31.91 31.91s-14.29 31.91-31.91 31.91zM246.29 443.51h-36.05c-17.62 0-31.91-14.29-31.91-31.91s14.29-31.91 31.91-31.91h36.05c17.62 0 31.91 14.29 31.91 31.91s-14.29 31.91-31.91 31.91zM243.5 714.64h-36.05c-17.62 0-31.91-14.29-31.91-31.91s14.29-31.91 31.91-31.91h36.05c17.62 0 31.91 14.29 31.91 31.91 0 17.63-14.28 31.91-31.91 31.91zM243.5 833.24h-36.05c-17.62 0-31.91-14.29-31.91-31.91s14.29-31.91 31.91-31.91h36.05c17.62 0 31.91 14.29 31.91 31.91s-14.28 31.91-31.91 31.91zM577.82 724.76v-45.82c0-17.91-14.47-32.42-32.32-32.42s-32.32 14.52-32.32 32.42v45.82" fill="#B7B3FF" /><path d="M545.5 695.06c-74 0-133.98 64.05-133.98 143.06h267.96c0-79.01-59.99-143.06-133.98-143.06z" fill="#9FAFFF" /><path d="M705.77 877.87H385.22c-14.53 0-26.32-11.78-26.32-26.32 0-14.53 11.78-26.32 26.32-26.32h320.55c14.53 0 26.32 11.78 26.32 26.32 0 14.54-11.78 26.32-26.32 26.32z" fill="#F6C0FF" /><path d="M486.38 315.63h-23.13c-2.85 0-5.18-2.33-5.18-5.18v-24.09c0-11.33-8.2-21.56-19.14-22.06-11.49-0.52-20.96 8.95-20.96 20.71v25.44c0 2.85-2.33 5.18-5.18 5.18h-23.71c-8.81 0-17.22 5.47-19.81 14.18-4.23 14.24 5.95 27.28 19.08 27.28h24.44c2.85 0 5.18 2.33 5.18 5.18v24.09c0 11.33 8.2 21.56 19.14 22.06 11.49 0.52 20.96-8.95 20.96-20.71v-25.44c0-2.85 2.33-5.18 5.18-5.18h24.44c11.37 0 20.54-9.79 20.03-21.67-0.48-11.31-10.38-19.79-21.34-19.79z" fill="#FF9797" /><path d="M755.4 348.68H592.5c-6.8 0-12.32-5.52-12.32-12.32 0-6.8 5.52-12.32 12.32-12.32h162.9c6.8 0 12.32 5.52 12.32 12.32 0 6.8-5.51 12.32-12.32 12.32zM781.54 574.89h-129.4c-6.8 0-12.32-5.52-12.32-12.32 0-6.8 5.52-12.32 12.32-12.32h129.41c6.8 0 12.32 5.52 12.32 12.32-0.01 6.8-5.52 12.32-12.33 12.32zM624.4 509.08H506.86c-6.8 0-12.32-5.52-12.32-12.32 0-6.8 5.52-12.32 12.32-12.32H624.4c6.8 0 12.32 5.52 12.32 12.32 0 6.8-5.52 12.32-12.32 12.32zM782.57 509.08h-97.58c-6.8 0-12.32-5.52-12.32-12.32 0-6.8 5.52-12.32 12.32-12.32h97.58c6.8 0 12.32 5.52 12.32 12.32 0 6.8-5.52 12.32-12.32 12.32zM707.42 282.18H592.5c-6.8 0-12.32-5.52-12.32-12.32 0-6.8 5.52-12.32 12.32-12.32h114.92c6.8 0 12.32 5.52 12.32 12.32-0.01 6.81-5.52 12.32-12.32 12.32zM782.57 423.84H592.5c-6.8 0-12.32-5.52-12.32-12.32 0-6.8 5.52-12.32 12.32-12.32h190.07c6.8 0 12.32 5.52 12.32 12.32 0 6.8-5.52 12.32-12.32 12.32zM446.65 512.09H339.97c-6.8 0-12.32-5.52-12.32-12.32v-0.07c0-6.8 5.52-12.32 12.32-12.32h106.68c6.8 0 12.32 5.52 12.32 12.32v0.07c0 6.8-5.52 12.32-12.32 12.32zM578.03 574.89h-242.5c-6.8 0-12.32-5.52-12.32-12.32v-0.07c0-6.8 5.52-12.32 12.32-12.32h242.5c6.8 0 12.32 5.52 12.32 12.32v0.07c0 6.8-5.52 12.32-12.32 12.32z" fill="#B7B3FF" /></svg>