<?xml version="1.0" standalone="no"?><!DOCTYPE svg PUBLIC "-//W3C//DTD SVG 1.1//EN" "http://www.w3.org/Graphics/SVG/1.1/DTD/svg11.dtd"><svg class="icon" width="200px" height="200.00px" viewBox="0 0 1024 1024" version="1.1" xmlns="http://www.w3.org/2000/svg"><path d="M64 917.333333h896v-42.666666H64zM128.085333 704h40.896l2.197334-40.341333C181.056 483.328 330.538667 341.333333 512 341.333333c181.418667 0 330.922667 141.994667 340.8 322.325334L855.04 704h40.896c11.776 0 21.418667 9.6 21.418667 21.333333s-9.664 21.333333-21.418667 21.333334H128.085333C116.266667 746.666667 106.666667 737.066667 106.666667 725.333333s9.621333-21.333333 21.418666-21.333333M512 170.666667a64 64 0 1 1 0 128 64 64 0 0 1 0-128M128.085333 789.333333h767.829334A64.106667 64.106667 0 0 0 960 725.333333c0-35.264-28.693333-64-64.085333-64-10.026667-175.722667-137.92-319.829333-305.749334-354.56A105.984 105.984 0 0 0 618.666667 234.666667a106.666667 106.666667 0 0 0-213.333334 0 106.026667 106.026667 0 0 0 28.757334 72.426666C279.765333 339.861333 161.493333 467.456 132.736 622.144A388.16 388.16 0 0 0 128.576 661.333333C92.8 661.333333 64 689.984 64 725.333333c0 35.264 28.672 64 64.085333 64" fill="#3D3D3D" /><path d="M323.285333 521.813333A234.24 234.24 0 0 1 512 426.666667a21.333333 21.333333 0 1 0 0-42.666667 276.949333 276.949333 0 0 0-223.018667 112.426667 21.333333 21.333333 0 0 0 34.304 25.386666" fill="#3D3D3D" /></svg>