<?xml version="1.0" standalone="no"?><!DOCTYPE svg PUBLIC "-//W3C//DTD SVG 1.1//EN" "http://www.w3.org/Graphics/SVG/1.1/DTD/svg11.dtd"><svg class="icon" width="200px" height="200.00px" viewBox="0 0 1024 1024" version="1.1" xmlns="http://www.w3.org/2000/svg"><path d="M436.3 830c-2.4 0.2-4 0.5-5.7 0.5-44.9 0.4-89.7-2.1-134.3-6.4-32.5-3.1-65.1-6.3-97.5-10.6-22.2-2.9-44.1-7.8-66.1-11.9-10.1-1.9-15.2-8.5-17.9-18.1-5.9-21.1-7.1-42.6-5.3-64.3 1.1-12.9 2.4-25.7 4.3-38.5 3.4-23 17.4-38.6 36.5-50.4 16.4-10.2 35-14.4 53.1-20.1 19.1-6 38.5-11.4 57.2-18.7 19.1-7.5 36.2-18.7 48.7-35.7 6.7-9.1 10.1-19.3 9.7-30.5-0.3-8.1-0.8-16.2-1.6-24.2-1-9.7-5.8-17.7-12.9-24.2-4.8-4.4-9.5-9.1-14.8-12.9-11.3-8.2-18.6-19.1-23.6-31.8-3.5-9-6.4-18.2-9.9-27.2-0.7-1.8-2.2-4-3.9-4.6-9.5-3.8-16.3-10.8-20.8-19.4-12.4-23.9-13.7-47.5 3.8-70 1.1-1.4 1.3-3.7 1.5-5.6 1.6-21.1 2.1-42.3 4.9-63.3 3.3-24.5 8.9-48.8 20.9-70.8 24.1-44.5 61.3-72 110.9-81.3 53.6-10 104.3-1.3 151.7 26.1 27.1 15.7 45.6 38.9 57.1 67.5 11.6 28.9 17.9 59.2 19.7 90.4 0.6 11 1 22.1 1.6 33.1 0.1 1.4 0.4 3.3 1.4 4.2 9.8 9.3 13.1 21 12.7 33.9-0.5 13.9-2.2 27.6-10.6 39.6-4.8 6.8-10.8 11.9-18.4 15.4-1.8 0.8-3.7 2.8-4.4 4.7-3.1 8.1-5.6 16.5-8.7 24.6-0.7 1.8-2.5 3.6-4.2 4.4-36.8 15.3-68.7 37.7-96.1 66.4-38.9 40.7-64 88.6-73.3 144.3-10.5 63.1 0.3 122.6 30.7 178.8 1.2 1.8 2.2 3.8 3.6 6.6zM678.9 450.4c-130.2 0-236 105.6-236.1 235.7 0 130.1 106 235.9 236.5 235.9 129.9-0.1 235.7-105.7 235.8-235.5 0.2-130.3-105.7-236.1-236.2-236.1zM854 715.8h-86.4c-5.3 0-10.2-3.2-12.3-8.1l-8.9-20.4-39.9 129.5c-1.7 5.7-7 6.9-12.9 6.9h-0.7c-6.2 0-11.4-2.2-12.5-8.2l-40.1-209.2L597.1 707c-2.1 4.9-7 8.8-12.3 8.8H504c-7.4 0-13.5-6-13.5-13.4s6-13.4 13.5-13.4h72l57-132.2c2.4-5.4 7.9-8.7 13.9-8.1 5.9 0.7 10.7 5 11.7 10.8l38 199.7 34.6-114.7c1.6-5.4 6.5-9.2 12.1-9.6 5.8-0.1 10.8 3 13.1 8.1l20 45.9H854c7.4 0 13.5 6 13.5 13.4s-6.1 13.5-13.5 13.5z" /></svg>