<?xml version="1.0" standalone="no"?><!DOCTYPE svg PUBLIC "-//W3C//DTD SVG 1.1//EN" "http://www.w3.org/Graphics/SVG/1.1/DTD/svg11.dtd"><svg class="icon" width="200px" height="200.00px" viewBox="0 0 1024 1024" version="1.1" xmlns="http://www.w3.org/2000/svg"><path d="M650.925117 682.03974m-341.96026 0a341.96026 341.96026 0 1 0 683.920521 0 341.96026 341.96026 0 1 0-683.920521 0Z" fill="#FFD63A" /><path d="M498.103077 580.203974a70.751578 70.751578 0 0 1-62.236767-78.377292 22.295809 22.295809 0 0 1 44.454833 0c0 19.970479 10.737552 33.067557 17.679346 33.067557s17.679345-13.062882 17.679345-33.067557a22.295809 22.295809 0 1 1 44.454834 0 70.785774 70.785774 0 0 1-62.031591 78.377292z" fill="#656565" /><path d="M498.103077 584.068125a74.786709 74.786709 0 0 1-66.100918-82.070463 26.125764 26.125764 0 0 1 52.251527 0c0 19.218167 9.98524 29.203406 13.678411 29.203407s13.67841-9.98524 13.67841-29.203407a26.125764 26.125764 0 0 1 52.251528 0 74.786709 74.786709 0 0 1-65.758958 82.070463z m-39.940958-100.673101a18.705226 18.705226 0 0 0-18.431658 18.431658 67.742328 67.742328 0 0 0 58.406812 74.547337c33.067557 0 58.406812-32.281049 58.406812-74.547337a18.431658 18.431658 0 1 0-36.863316 0c0 21.5093-11.524061 36.863316-21.5093 36.863316s-21.5093-15.388212-21.5093-36.863316a18.705226 18.705226 0 0 0-18.465854-18.431658z" fill="#656565" /><path d="M86.314531 998.489765a38.265353 38.265353 0 0 1-38.436333-38.81249c0-123.48185 57.620304-218.854567 109.119519-304.344632 44.454834-73.760828 82.993755-138.220337 86.071398-212.015361 4.616464-130.457839-82.993755-308.277175-130.663016-383.611021a38.675705 38.675705 0 0 1 12.31057-53.585172 37.786609 37.786609 0 0 1 53.038036 12.447353c15.388212 24.860511 149.094674 244.63837 142.187076 427.894874-3.077642 93.97068-51.499215 173.168676-96.843146 249.28903-49.926198 83.096343-97.595458 162.29434-97.595458 263.309401a39.564802 39.564802 0 0 1-39.188646 39.428018z" fill="#656565" /><path d="M911.63562 998.455569a38.265353 38.265353 0 0 1-38.436333-38.81249c0-101.733177-47.635064-180.144665-97.595459-263.309401-46.130439-76.120354-93.731307-155.31835-96.843145-249.289029a670.002738 670.002738 0 0 1 66.853231-281.912039 1260.055168 1260.055168 0 0 1 75.231257-145.982835 39.15445 39.15445 0 0 1 53.038036-12.447354 40.077743 40.077743 0 0 1 12.31057 53.585173c-1.538821 2.32533-136.784104 221.350877-130.62882 383.645216 3.077642 73.760828 41.47978 137.468025 86.071398 212.015362 51.499215 84.635164 109.119519 180.931174 109.119519 304.344631a39.257038 39.257038 0 0 1-39.120254 38.162766z" fill="#656565" /><path d="M498.889586 781.515979c-240.466455 0-330.367808-65.31441-334.197763-68.392052a30.776423 30.776423 0 1 1 36.897512-49.173885c0.752313 0 80.668425 56.115679 297.334447 56.115678s296.547938-55.32917 297.334446-56.115678a30.776423 30.776423 0 1 1 36.897512 49.173885c-3.898347 3.043446-93.799699 68.392052-334.266154 68.392052z" fill="#656565" /><path d="M498.889586 908.588412c-282.732743 0-388.77462-76.872667-392.604575-79.881917a30.776423 30.776423 0 1 1 36.897512-49.173885c0.752313 0.752313 96.80895 67.605543 355.638671 67.605543s354.95475-66.853231 356.493571-67.605543a30.776423 30.776423 0 0 1 43.018601 6.839205 31.460344 31.460344 0 0 1-6.155285 43.052797c-4.513875 2.975054-110.521556 79.1638-393.288495 79.1638z" fill="#656565" /><path d="M61.727589 593.950776a31.118384 31.118384 0 0 1-21.509301-53.038036c76.872667-76.872667 33.81987-144.47821 28.451094-152.172316a30.776423 30.776423 0 0 1 7.694106-43.052797 29.750543 29.750543 0 0 1 42.266288 6.839206c28.416898 39.188646 57.620304 138.322925-35.358691 231.336116a28.280114 28.280114 0 0 1-21.543496 10.087827z" fill="#656565" /><path d="M932.221628 593.984972a30.331875 30.331875 0 0 1-21.509301-9.301319c-92.978995-92.978995-63.775589-192.113274-35.358691-231.336116a30.776423 30.776423 0 1 1 49.926198 36.111004c-5.368776 7.694106-48.421573 74.547337 28.451094 151.454199a31.118384 31.118384 0 0 1-21.5093 53.038036z" fill="#656565" /></svg>