<?xml version="1.0" encoding="utf-8"?>
<svg version="1.1" xmlns:xlink="http://www.w3.org/1999/xlink" width="213px" height="213px" xmlns="http://www.w3.org/2000/svg">
  <g transform="matrix(1 0 0 1 -100 -175 )">
    <path d="M 206.5 175  C 266.14 175  313 221.85999999999999  313 281.5  C 313 341.14  266.14 388  206.5 388  C 146.85999999999999 388  100 341.14  100 281.5  C 100 221.85999999999999  146.85999999999999 175  206.5 175  Z " fill-rule="nonzero" fill="#ffffff" stroke="none" />
    <path d="M 206.5 175.5  C 265.86 175.5  312.5 222.14  312.5 281.5  C 312.5 340.86  265.86 387.5  206.5 387.5  C 147.14 387.5  100.5 340.86  100.5 281.5  C 100.5 222.14  147.14 175.5  206.5 175.5  Z " stroke-width="1" stroke="#797979" fill="none" />
  </g>
</svg>