<?xml version="1.0" encoding="utf-8"?>
<svg version="1.1" xmlns:xlink="http://www.w3.org/1999/xlink" width="77px" height="77px" xmlns="http://www.w3.org/2000/svg">
  <g transform="matrix(1 0 0 1 -168 -745 )">
    <path d="M 206.5 745  C 228.06 745  245 761.94  245 783.5  C 245 805.06  228.06 822  206.5 822  C 184.94 822  168 805.06  168 783.5  C 168 761.94  184.94 745  206.5 745  Z " fill-rule="nonzero" fill="#ffffff" stroke="none" />
    <path d="M 206.5 745.5  C 227.78 745.5  244.5 762.22  244.5 783.5  C 244.5 804.78  227.78 821.5  206.5 821.5  C 185.22 821.5  168.5 804.78  168.5 783.5  C 168.5 762.22  185.22 745.5  206.5 745.5  Z " stroke-width="1" stroke="#797979" fill="none" />
  </g>
</svg>