<?xml version="1.0" encoding="utf-8"?>
<svg version="1.1" xmlns:xlink="http://www.w3.org/1999/xlink" width="30px" height="30px" xmlns="http://www.w3.org/2000/svg">
  <g transform="matrix(1 0 0 1 -29 -322 )">
    <path d="M 44 322  C 52.400000000000006 322  59 328.6  59 337  C 59 345.4  52.400000000000006 352  44 352  C 35.6 352  29 345.4  29 337  C 29 328.6  35.6 322  44 322  Z " fill-rule="nonzero" fill="#ffffff" stroke="none" />
    <path d="M 44 322.5  C 52.120000000000005 322.5  58.5 328.88  58.5 337  C 58.5 345.12  52.120000000000005 351.5  44 351.5  C 35.879999999999995 351.5  29.5 345.12  29.5 337  C 29.5 328.88  35.879999999999995 322.5  44 322.5  Z " stroke-width="1" stroke="#797979" fill="none" />
  </g>
</svg>