<?xml version="1.0" standalone="no"?><!DOCTYPE svg PUBLIC "-//W3C//DTD SVG 1.1//EN" "http://www.w3.org/Graphics/SVG/1.1/DTD/svg11.dtd"><svg class="icon" width="200px" height="200.00px" viewBox="0 0 1024 1024" version="1.1" xmlns="http://www.w3.org/2000/svg"><path d="M395.104 561.636c-0.12-2.156 0.088-4.36 0.656-6.54l24.564-94.6-116.056 84.32c-19.06 13.852-45.744 9.624-59.596-9.44l-1.424-1.96c-13.852-19.064-9.624-45.748 9.44-59.6l189.048-137.352 41.836-30.64a64 64 0 0 1 55.244-9.952l47.7 13.496a31.38 31.38 0 0 1 12.6 6.98c2.476 1.768 4.8 3.832 6.92 6.188l177.784 197.452c15.768 17.512 14.352 44.488-3.16 60.256l-1.8 1.624c-17.512 15.768-44.488 14.352-60.256-3.16l-117.02-129.96-44.7 161.312 90.28 121.704-0.176 0.08c0.816 1.344 1.48 2.78 1.98 4.272l48.152 144.12a42.668 42.668 0 0 1-25.176 53.352l-2.852 1.096c-21.88 8.4-46.424-2.528-54.824-24.408a41.028 41.028 0 0 1-0.484-1.336l-49.112-141.96-92.544-122.96-22.172 122.604-0.452-0.164a21.34 21.34 0 0 1-5.184 10.584l-133.108 147.152c-15.588 17.232-42.1 18.82-59.632 3.576l-1.78-1.544c-17.784-15.46-19.668-42.408-4.208-60.192l0.592-0.668 118.42-130.592-0.12-0.04 30.62-173.1z m213.424-289.136c-51.684 0-93.584-41.896-93.584-93.584 0-51.68 41.9-93.584 93.584-93.584 51.688 0 93.588 41.9 93.588 93.584 0 51.688-41.9 93.584-93.588 93.584z" fill="#34475E" /></svg>